/* XPM */
static char *_8fd1ee7427a48dc8f4549a55c9b5103aH2Vq4etmc1mLxpo[] = {
/* columns rows colors chars-per-pixel */
"70 70 227 2 ",
"   c #82B878",
".  c #A7D67E",
"X  c #BFF17C",
"o  c #C7EB7D",
"O  c #3D7A98",
"+  c #1E7FB2",
"@  c #2F7CAF",
"#  c #367EA9",
"$  c #2C7BB5",
"%  c #267EB9",
"&  c #2B7DBA",
"*  c #337DB4",
"=  c #357ABC",
"-  c #417AA0",
";  c #667DB9",
":  c #267EC5",
">  c #2B7DC5",
",  c #267FCD",
"<  c #2A7ECB",
"1  c #387BC3",
"2  c #257ED2",
"3  c #2A7ED3",
"4  c #2B7CDA",
"5  c #358990",
"6  c #34839A",
"7  c #2983A9",
"8  c #3B84A6",
"9  c #3D8CA4",
"0  c #3487A8",
"q  c #3484AC",
"w  c #3B84AC",
"e  c #3E91A3",
"r  c #2482BC",
"t  c #2886BB",
"y  c #2B81BC",
"u  c #3384B3",
"i  c #3985B4",
"p  c #3C89B5",
"a  c #3484BC",
"s  c #3B84BB",
"d  c #3389BD",
"f  c #3B8BBB",
"g  c #3E92BD",
"h  c #598D8B",
"j  c #559888",
"k  c #46899C",
"l  c #498C9C",
"z  c #568B96",
"x  c #46929A",
"c  c #4B9699",
"v  c #549995",
"b  c #52959B",
"n  c #5A9B9D",
"m  c #64969C",
"M  c #5CA298",
"N  c #68A38E",
"B  c #7FBB8A",
"V  c #65A697",
"C  c #6BA494",
"Z  c #65AE9B",
"A  c #6EAB9D",
"S  c #76A994",
"D  c #72AD95",
"F  c #79B698",
"G  c #4888A5",
"H  c #448AAC",
"J  c #548EAC",
"K  c #4A93A4",
"L  c #5898A8",
"P  c #4389B4",
"I  c #4C8EB3",
"U  c #448CBB",
"Y  c #4C8DBB",
"T  c #5A8CBC",
"R  c #4A93B5",
"E  c #4596B9",
"W  c #4293BC",
"Q  c #4B94BE",
"!  c #5D95B4",
"~  c #5896B9",
"^  c #639DA9",
"/  c #6683BD",
"(  c #689BB7",
")  c #729EB3",
"_  c #5FA1AB",
"`  c #6AABA4",
"'  c #6AA9AB",
"]  c #78A6A4",
"[  c #65B1AD",
"{  c #79B6A5",
"}  c #66A1B9",
"|  c #78A6B8",
" . c #7AB6B6",
".. c #7EC3A1",
"X. c #1E84C8",
"o. c #1F81D0",
"O. c #2582C5",
"+. c #2C83C5",
"@. c #2488C3",
"#. c #2E8BC6",
"$. c #2681CD",
"%. c #2A84CC",
"&. c #2789CC",
"*. c #2C8ACD",
"=. c #3284C5",
"-. c #338DC6",
";. c #3A8CC3",
":. c #3185CB",
">. c #3A86C8",
",. c #328DCB",
"<. c #3A8DCD",
"1. c #2E90C7",
"2. c #2C92CE",
"3. c #2E99CF",
"4. c #3593C6",
"5. c #3B93C4",
"6. c #3C9BC6",
"7. c #3593CB",
"8. c #3A95CA",
"9. c #349BCD",
"0. c #3C9BCA",
"q. c #2682D0",
"w. c #2A84D1",
"e. c #2B8CD0",
"r. c #3287D3",
"t. c #338DD2",
"y. c #3A8DD1",
"u. c #2D93D1",
"i. c #2F99D2",
"p. c #3194D2",
"a. c #3A91D4",
"s. c #329CD2",
"d. c #3B9BD2",
"f. c #2FA0CF",
"g. c #33A1CE",
"h. c #34A4D2",
"j. c #36A9D6",
"k. c #458BC3",
"l. c #5D8AC1",
"z. c #4493C4",
"x. c #4B93C3",
"c. c #429AC7",
"v. c #4D99C4",
"b. c #4293CC",
"n. c #4B97CA",
"m. c #439BCB",
"M. c #4B98CA",
"N. c #589AC3",
"B. c #4396D1",
"V. c #4A97D2",
"C. c #689BC5",
"Z. c #58A3C0",
"A. c #65A4C2",
"S. c #6BA4C4",
"D. c #6BACC2",
"F. c #60A0C8",
"G. c #71A8C5",
"H. c #74AAC4",
"J. c #7BADC2",
"K. c #7BB3C8",
"L. c #6EABD2",
"P. c #79B5D3",
"I. c #88BB96",
"U. c #85BAA3",
"Y. c #8DB3AF",
"T. c #83A9BA",
"R. c #85B2BD",
"E. c #95C88D",
"W. c #9CD189",
"Q. c #89C69A",
"!. c #95CA9C",
"~. c #9AD799",
"^. c #ADD98D",
"/. c #A8D997",
"(. c #A4D49C",
"). c #A8E187",
"_. c #BAE788",
"`. c #A9E49A",
"'. c #B6E298",
"]. c #8CC7A5",
"[. c #93CCA2",
"{. c #90C9A7",
"}. c #9ACFA3",
"|. c #99D4AA",
" X c #8DC9B2",
".X c #A9D4A7",
"XX c #A6D9A4",
"oX c #AADBA3",
"OX c #A1D5B1",
"+X c #AFE3A7",
"@X c #84AFCE",
"#X c #8BB2C0",
"$X c #87B8C9",
"%X c #96BBC8",
"&X c #84BAD2",
"*X c #92BED3",
"=X c #A8BDD2",
"-X c #8FC1CA",
";X c #96C1CE",
":X c #8CC1D4",
">X c #95C4D3",
",X c #9BC7D7",
"<X c #9CCCDA",
"1X c #ABC8CC",
"2X c #A3CCD4",
"3X c #A3CCDC",
"4X c #A8C9D8",
"5X c #B1CCDC",
"6X c #A5D1DD",
"7X c #B9D6DB",
"8X c #9ACBE0",
"9X c #B2CDE2",
"0X c #ABD4E2",
"qX c #A9DAE6",
"wX c #B1DAE5",
"eX c #B6DAE6",
"rX c #BBDCE4",
"tX c #C7DDDB",
"yX c #DCE6DA",
"uX c #C1DDE4",
"iX c #C1DCE9",
"pX c #C7E4E6",
"aX c #CAE1E3",
"sX c #C4E5EB",
"dX c #CAEAEE",
"fX c #D6EAE9",
"gX c #E8EEE5",
/* pixels */
"v.l.T / ; ; / l.v.m.0.0.0.0.0.0.0.0.0.0.0.0.0.0.0.0.0.0.0.0.0.0.0.0.0.0.0.0.0.0.0.0.0.0.0.0.0.0.0.0.0.0.0.0.0.0.0.0.0.0.0.0.0.0.0.0.0.0.0.0.",
"0.0.0.m.c.c.0.0.0.0.m.0.g.0.m.0.0.0.0.0.0.0.0.0.0.0.0.0.0.0.0.0.0.0.0.0.0.0.0.0.0.0.0.0.0.0.0.0.0.0.0.0.0.0.0.0.0.0.0.0.0.0.0.0.0.0.0.0.0.0.",
"0.0.0.0.0.0.0.0.0.0.0.0.0.0.0.0.0.0.0.0.0.0.0.0.0.0.0.6.m.b.m.6.6.s.d.0.0.0.0.0.0.0.0.0.0.0.0.0.0.0.0.0.0.0.0.0.0.0.0.0.0.0.0.0.0.6.6.6.6.6.",
"0.0.0.0.6.6.0.6.0.0.0.0.0.0.0.0.6.6.6.6.0.0.0.0.0.0.0.6.6.0.0.0.c.6.0.6.E 6.0.0.0.6.0.0.0.0.0.0.0.0.0.0.8.8.8.0.0.0.0.0.0.0.0.0.0.0.0.0.0.0.",
"6.6.6.6.6.6.6.6.6.6.8.8.0.0.0.6.6.6.6.6.6.6.6.6.0.0.8.6.6.0.6.z.Q E 6.s.0.0.0.6.8.8.8.8.8.8.8.0.0.0.8.8.8.8.0.0.0.0.0.8.6.0.0.0.0.0.0.0.0.6.",
"6.6.6.6.8.8.8.8.6.8.8.8.6.8.8.6.8.8.6.6.6.6.6.6.6.6.8.6.6.6.Q &X6X<XD.Q 8.0.6.6.6.6.6.8.8.8.6.6.6.8.8.8.8.8.8.8.8.8.8.8.6.0.0.0.0.0.6.0.6.6.",
"8.8.8.8.8.8.8.8.8.8.8.8.8.8.8.8.8.8.8.8.8.8.8.8.8.8.9.8.8.g :XpX$X>XdX#XW 8.6.6.6.8.5.8.6.8.8.8.6.8.8.8.8.6.6.8.8.8.8.8.8.8.8.6.8.8.8.8.8.8.",
"8.8.8.8.8.8.8.8.8.8.8.8.8.8.8.8.8.8.8.8.8.8.8.8.8.8.9.8.8.W wXR.P U $XrXW 7.8.8.5.v.N.z.5.8.5.8.8.8.8.8.8.8.8.8.8.8.8.8.8.0.6.8.4.8.4.8.6.0.",
"8.8.8.8.8.4.4.8.7.7.8.7.7.8.8.8.8.8.8.8.8.8.8.8.8.4.4.8.7.g qX| ;.4.I 0XZ.7.5.5.P.sXsX0X~ 5.8.a.p.7.7.7.7.7.7.7.7.7.7.7.8.0.0.4.7.8.7.4.8.8.",
"8.7.7.7.4.4.4.8.7.7.8.8.8.8.7.8.8.8.8.8.8.8.8.8.8.8.4.4.4.f &X2XP 3.i ,XD.5.7.A.rX| ( rX2X;.8.8.p.7.7.7.7.7.7.7.7.7.7.7.7.8.8.7.7.7.7.7.8.8.",
"7.7.7.7.7.4.4.7.8.7.7.7.7.7.7.7.7.7.7.7.8.4.4.8.7.7.8.4.4.5.Q <XJ.5.d *X$Xg g <XH.;.f $XeX;.8.g 7.7.7.7.7.7.7.7.7.7.7.7.7.8.8.8.7.7.7.7.8.8.",
"7.7.7.7.7.4.4.4.7.7.7.7.7.7.7.7.7.7.7.7.7.7.4.7.7.7.7.7.7.,.;.Q *X} p #XrXJ | <Xf p.R 2X*X;.7.7.p.7.7.7.7.7.7.7.7.7.7.7.7.8.8.8.7.7.7.7.8.8.",
",.,.,.,.,.7.4.4.4.,.,.7.,.,.,.,.,.,.,.,.,.,.-.7.8.4.4.-.4.1.7.,.U &X} ! dXtXfX} U ( 5X0XR -.7.<.t.,.,.,.,.,.,.,.,.,.,.7.7.4.8.8.8.,.7.,.7.8.",
",.,.,.,.,.,.7.7.7.,.,.,.,.,.,.,.,.7.7.;.7.8.b.b.8.6.5.5.;.-.,.,.7.W <X#X( *X$X! ,XaX;XR ;.t.<.;.,.7.,.,.<.<.,.,.,.,.,.,.7.7.7.7.7.7.,.-.7.8.",
"-.-.-.,.,.,.,.,.,.,.,.,.,.,.,.,.,.,.-.<.8.b.n.B.B.z.v.Q I p #.e.,.p %XpX~ p J rX5XC.>.y.,.1.2.u.u.,.,.,.,.,.,.,.,.,.,.,.,.,.,.,.p.7.,.,.7.8.",
",.,.,.#.#.,.,.,.,.,.,.,.,.,.,.,.,.#.-.8.m.M.m.B.x.C.6XsXrX3XL.x.;.( uX1X| <XY.pX| i <.t.,.;.;.-.*.*.,.,.-.,.,.,.,.,.,.,.#.,.,.,.,.<.<.,.,.7.",
",.,.,.,.,.,.,.,.,.,.,.,.,.,.,.,.,.-.8.B.V.V.B.m.~ rXuX%X$X:X0XrXtXyXdX) %X] -XR.7X| ~ N.N.N.k.=.,.,.,.,.,.,.,.,.,.,.,.,.,.,.,.,.*.,.<.,.,.7.",
"#.#.#.#.#.#.#.#.#.#.#.#.,.,.,.,.,.,.8.B.B.B.B.z.K.pX} f 8.;.P ~ H.R.| J J.>XA.G T.=X9XrXuXsXwX@Xk.;.,.#.*.,.,.,.,.#.#.,.,.*.*.*.*.,.<.,.,.7.",
"#.#.#.#.#.#.#.#.#.#.#.#.#.,.,.,.,.,.8.b.8.8.b.z.H.7XY m.8.8.,.d I K.tXtXJ.J %XaX7X| I k.k.T H.rXP.f -.#.*.*.,.,.#.#.#.#.,.,.*.#.*.#.<.<.,.<.",
"*.#.*.#.*.*.*.#.#.#.#.#.#.#.#.#.#.-.8.5.5.5.8.b.T 0XK.I z.z.U S.&XK.%XgX4X( gXfXyXfX,Xx.s >.t } rXY ,.*.#.#.,.,.*.,.*.,.,.,.,.,.*.#.<.<.,.,.",
"*.*.*.*.*.*.#.#.#.#.#.#.#.#.#.#.,.,.8.5.5.8.8.b.x.~ ,X2X;X>X8XG.f s G aX#XR.fXA.I } 4XpXK.k.:.! eXY ,.*.#.e.,.,.,.,.,.,.t.t.,.*.,.,.<.,.#.#.",
"*.*.*.*.*.*.*.*.*.*.*.*.*.*.*.#.#.,.8.5.<.b.5.5.8.b.U F.P.L.x.a *.*.( rXJ #XrXd *.=.P S.wXiX=X7X*Xs *.#.*.e.*.*.*.*.*.*.t.t.t.,.,.,.<.,.#.#.",
"*.*.%.*.*.%.*.*.*.*.*.*.*.#.*.*.*.:.<.8.<.5.5.<.a.a.8.;.;.d +.+.#.=.$X,X$ G.eXi #.e.#.+.k.G.>X&XP =.*.*.t.*.*.*.*.*.*.*.*.,.t.t.,.t.,.*.#.,.",
"%.%.%.*.*.%.*.*.%.*.*.*.*.*.*.%.*.+.-.<.<.<.<.y.y.<.t.y.<.=.%.*.*.=.0X| O.~ wXs +.%.%.*.%.@.=.=.%.%.&.*.r.*.%.%.*.%.%.%.*.*.*.*.,.,.*.*.,.,.",
"*.%.%.%.*.*.*.*.%.*.*.*.*.*.*.%.*.%.+.,.<.<.<.y.<.<.<.t.w.%.%.:.*.=.wX( y ~ qX>.%.q.+.%.*.&.*.%.%.%.&.*.r.*.%.%.%.%.%.%.%.*.%.%.%.%.%.*.t.*.",
"*.*.*.+.+.+.+.+.+.%.%.%.*.*.%.%.%.%.*.*.,.,.,.,.,.,.:.*.%.%.%.%.%.a 0X%XO | wXs %.w.+.%.%.%.%.%.%.%.%.%.*.*.*.%.%.%.%.%.*.*.*.%.%.%.%.%.*.*.",
"%.%.*.*.*.*.*.*.+.*.%.%.%.*.%.*.%.*.%.%.*.%.%.%.%.%.%.%.%.%.%.%.q.+.G.pX1XuX3X1 *.q.w.%.%.%.%.%.%.%.%.%.%.*.:.*.*.*.%.*.*.*.*.*.#.*.%.%.%.*.",
"*.t.*.%.*.*.%.%.%.%.*.%.%.%.%.%.%.%.%.%.%.%.%.%.%.%.*.%.%.%.%.%.%.%.a ! $X*XY %.%.*.< %.%.%.%.%.%.%.%.%.%.%.*.*.*.:.:.:.%.:.*.*.,.*.%.%.%.%.",
"%.%.%.%.%.%.%.%.%.%.%.%.%.%.%.%.%.%.%.%.%.%.%.%.%.%.%.%.%.%.%.%.%.%.q.O.$ & w.%.w.*.%.%.%.%.%.%.%.%.%.%.%.%.%.%.%.< < < < %.%.%.*.e.%.%.*.*.",
"%.%.%.%.%.%.%.%.%.%.%.%.%.%.%.%.%.%.%.%.%.%.%.%.%.%.%.%.%.%.%.%.%.%.3 $.%.3 3 y w.t.e.%.%.%.%.%.%.%.%.%.%.%.%.%.: > > > > > < %.*.*.%.%.*.e.",
"< %.< %.%.%.%.%., , < %.%.%.%.%.%.%.%.%.%.%.%.%.%.%.%.%.%.%.%.%.%.%.%.%.%.%.%.+.%.t.t.%.%.%.$.$.$.$.%.%.%.%.+.> > : > : > > > :.w.w.%.%.e.*.",
": %.%.%.%.%.%.$., , < %.%.*.%.%.%.%.%.%.%.$.%.%.%.q.%.%.%.%.%.%.%.%.$.$.%.$.%.$.$.%.%.%.%.%.$.$.$.$.%.%.%.%.> > > < < %.< > > :.w.w.%.%.*.%.",
"<.O.%.%.%.$.%.%.$., %.%.%.%.%.$.$.$.%.%.%.%.%.$.$.$.q.q.q.q.q.q.$.$.%.%.%.%.$.$.$.$.$.$.$.$.$.$.$.$.$.$.$.%.< < < %.$.%.< > :.:.%.w.%.%.%.%.",
"n.;.+.$., O.O.%.$., < %.%.%.$.$.$.$.$.$.$.%.$.$., $., , , , , , $.$.$.$.$.$., $.$., $.$.$.$.$.$.$.$.$.$.$.< < < < %.q.$.< %.:.%.%.%.w.e.%.%.",
"n.b.> < , $.$.%.%., , %.%.%.< , , , $.$.$.$.$.$., $., , , , , , , $.$.%.$., , , , , $., , , , , , $.$.$.$., < : < %.%.%.%.%.+.: %.%.%.e.%.%.",
"M.V.:.< 2 $.$.$.$., < %.&.: & : , $.$., : $.$.$.$.$., , , , , , , $.$.%.$., , , , , , , , , , , , $.$.$.$., : : < %.%.%.%.%.+.: %.%.w.e.%.%.",
"n.V.:., q.$.+.+.$.2 O.O.t c F ` 8 > , 3 : $.$.&.$.$., , , , , , , $.%.%.$.$.$.$.$.$.$.$.$.$.$.$., $.$.$.$.$.< < < < *.*.%.%.%.> %.%.w.e.*.*.",
"M.B.%., , O.+.%.3 3 O.& ^ /.~./.!.w 2 2 , , $.$.%.%.$.$.$.$.$.$., $.$.$.$.$.$.$.$.$.$.$.$.$.$.$.$.$.$.$.$.$.q.< < < :.%.%.%.%.: > %.*.e.:.%.",
"V.t., , $.&.&.$.+.< q.$ [.I.# z (.V > $.$., q.$.%.$.$.$.$.$.$.$.$.$.$.$., , $.$.$.$.$.$.$.$.$.$.$.$.$.$.$.$.q.q.< < :.=.%.%.%.%.+.+.*.,.:.:.",
"t.: $.$.y y & y O.< $.$ [.L y @ Q.` , $., , %.%.%.+.%.%.$.$.$.$.%.%.$.$.2 , $.$.$.$.$.$.$.$.$.$.$.$.$.$.q.q.q.q.%.%.:.%.%.%.$.%.+.+.,.,.*.:.",
": O.O.u n ].].L * : %.& ..n > 0 ~.^ , O.< < : & y O.%.%.%.%.%.%.%.%.$.$.2 2 $.$.$.$.$.$.$.$.$.$., , , $.q.%.%.%.%.%.*.:.+.%.w.%.=.=.,.:.+.#.",
"O.X.@ { XXI.Q.oXU.q +.$ A A > K ~.k $.$.> 6 n { { L q &.%.%.$.%.%.$.$.$., , $.$.$.$.$., , , , $., < < < %.%.%.%.%.%.*.:.*.+.*.*.*.,.:.*.#.*.",
"2 O.K +Xv 7 7 x  X{ 8 % Z I.- Q.Q.= 2 , H ].XX[.[.oX` % < %.q.< < $.$.$.$.$.$.$.$.$.$., , , , $.$.q.%.< %.%.%.%.%.%.%.e.:.:.=.,.,.,.*.#.#.*.",
"3 < L `.l %.=.> q I.OXC E.(.h oXc r 7 K /.Q.G @ # j (.w < O.O.< , , , $.$.$.$.$.$.$.$.$.$.$., , $.q.q.q.q.q.w.%.$.w.w.w.*.:.:.,.,.e.e.*.#.,.",
"$.%.i [.F w r < > w F '.(.A b +XB n A }.A 8 r O.* v /.H < O.O.< , , $.$.$.$.$.$.$.$.$.$.$.$.< < %.%.%.%.q.q.%.%.w.w.w.w.*.:.:.+.*.e.e.*.,.,.",
"O.: :.c }.{.A ^ R E 5 j G 6 v B !.OXU.v 7 0 K b D .X{.i < $.o., $.$.$.$.$.$.$.$.$.$.$.$.$.%.< < < < < < < < %.%.*.*.*.*.%.+.=.=.*.*.*.#.,.,.",
"2 +.< u w L ' ' } ' Q.(.{ M U.U.k j   E.~./.oX.X[.{ G : < , q.$.$.$.$.$.$.$.$.$.$.$.$.%.$.%.< < > > > > > > > +.%.:.:.*.%.+.+.,.#.#.#.#.7.7.",
"$., $.%.%.O.% : & $ 6 E.^.F S F v ~.o /.F M x 8 * % , $.$.$.$.$., , , , $.$.%.%.%.%.%.q.%.< > : %.%.%.%.%.%.%.%.+.+.+.=.=.*.#.,.,.#.#.#.#.1.",
"$., $.%.> +.+.%.2 4 < I.^.h ` V j _.).c 1 < , : O.$.$.$.$.$.$., , , 2 , , $.%.%.%.%.%.%.%.> > : %.%.%.w.w.w.*.%.%.*.*.+.=.#.#.*.#.#.#.*.2.2.",
"$., , q.w.%.%., O.r l . ^.z F S k ^.. 6 : X.X.O.O.$.$.$.$., $., , , , , , $.%.%.%.%.%.q.%.> > : %.w.w.w.w.w.&.*.*.*.*.*.#.#.*.,.*.#.*.*.7.7.",
"$.$.$.$.O.r %.& 9 Z /.^.N E.o X D m '.N & , 2 < < < , $., , , , q.$., , q.q.%.%.%.%.%.q.%.%.+.%.%.w.w.w.w.e.e.*.e.*.*.#.#.#.,.,.#.2.7.7.7.7.",
"$.$.$.$.$.> H F ~.[.C 9 c }.S W.W.O ] XXb * 3 3 > O.$.$., , $., $.%.$.$.$.$.%.%.%.%.%.w.%.%.%.%.%.e.w.w.e.e.e.*.*.#.#.#.,.,.,.,.,.7.7.7.7.4.",
", $.$.$.> L `.~.m # & $  .b + c /.l $ ] |.x > 3 %.$.$., $.$.$.%.,.t.t.*.%.%.%.%.q.q.q.q.%.%.*.%.%.%.*.e.e.e.*.#.#.#.#.#.,.,.,.,.,.7.7.7.7.7.",
", $.$.$.8 (.}.8 r O.q.8  .= &.0 [.' > 0 U.{.8 w.&.< q., $.%.%.,.<.y.<.,.*.%.w.%.q.q.w.w.%.%.%.+.%.%.%.*.*.e.,.#.*.*.*.*.2.1.1.-.,.7.7.4.4.7.",
", , $.$.c _.C y r $.< [ [ > : & _ |.H 7 z `.M < +.q.q.q.%.%.*.t.<.<.<.y.t.%.%.%.%.%.w.w.w.%.%.*.%.%.%.%.#.*.*.*.*.*.2.2.2.2.7.7.7.7.7.8.7.9.",
"$.%.$.$.k '.C & < = J |.e y %.q.u ].~.N S '._ > q.w.q.w.%.%.*.t.<.<.<.y.t.%.%.%.%.%.%.e.e.*.*.*.*.*.*.*.*.*.*.*.2.2.2.2.2.2.7.7.7.7.7.8.7.3.",
"%.%.%.%.* { |.Z n A  X! y $.%.%.+.9 !.oXOXA i +.w.q.%.$.$.$.*.t.<.<.<.a.t.*.%.%.%.*.*.e.e.e.*.*.*.*.*.e.e.u.u.u.u.u.u.u.u.7.7.1.3.7.7.8.7.9.",
"w.%.%.%.%.0 ' U.{ [ 9 +.%.q.O.$.q.%.0 e w & %.&.%.%.%.$.$.$.%.t.<.<.y.y.,.*.*.*.*.*.*.e.e.e.e.e.*.*.*.e.u.u.u.u.u.u.u.u.u.7.7.7.3.3.9.8.9.s.",
"q.q.q.%.w.%.+.=.y %.%.%.%.w.$.q.q.w.%.%.%.q.%.%.%.%.%.%.%.%.%.%.t.t.t.*.%.*.*.*.*.*.*.e.e.e.e.e.e.u.u.u.u.2.2.2.u.i.u.i.3.8.8.7.i.i.3.9.9.s.",
"q.q.q.q.q.q.q.q.%.w.w.w.%.w.w.w.w.w.w.w.w.w.w.%.w.%.%.%.%.w.w.w.*.*.*.*.*.*.*.*.*.*.*.e.e.e.e.u.u.u.u.u.u.2.u.u.u.i.i.i.7.8.8.9.i.i.9.9.9.s.",
"%.%.%.%.q.q.q.q.w.w.w.w.%.%.w.%.%.w.w.w.w.w.w.%.w.w.w.w.e.e.e.e.*.*.e.e.e.e.e.e.*.*.*.e.e.u.u.u.u.u.u.u.u.u.u.u.i.i.i.p.7.8.8.9.i.3.9.9.0.g.",
"%.%.e.*.%.%.%.%.%.w.w.w.%.%.%.%.%.%.%.%.%.%.%.%.%.%.*.e.e.e.e.e.*.*.*.e.e.e.*.*.e.e.e.u.u.u.u.u.u.u.u.u.u.u.i.i.i.i.i.i.s.7.8.9.3.3.9.0.0.g.",
"*.*.e.*.&.&.&.&.&.*.e.%.%.%.%.%.*.%.%.%.*.*.*.*.*.*.e.e.e.e.*.*.*.&.*.e.e.e.e.e.e.u.u.u.u.u.u.u.u.u.u.u.i.i.3.3.3.s.i.i.i.9.6.9.9.9.0.0.0.g.",
"*.*.*.*.*.*.*.*.*.*.*.*.*.*.*.*.*.*.*.e.e.e.*.*.*.*.e.e.e.*.*.*.*.*.e.e.e.e.e.e.e.u.u.u.u.u.u.u.u.u.u.i.i.i.i.3.3.s.s.i.i.9.8.8.0.0.0.0.0.g.",
"e.e.e.*.*.*.*.*.*.*.*.*.*.*.*.*.*.e.*.e.e.*.*.e.e.e.*.*.*.e.e.e.*.*.e.e.e.2.2.2.2.2.u.u.u.u.u.u.u.u.u.i.s.s.s.i.s.s.s.s.s.s.9.6.6.0.0.9.g.g.",
"e.e.e.*.*.*.e.e.e.*.*.*.*.*.*.*.*.*.*.*.*.*.*.e.e.e.e.e.e.u.u.u.u.u.u.u.u.u.u.u.u.u.u.u.u.u.u.i.i.i.i.i.s.s.s.s.s.s.s.s.h.h.9.9.0.0.0.g.g.h.",
"e.*.*.*.e.*.e.*.e.*.*.*.*.*.*.*.*.*.*.e.*.*.*.*.e.*.e.e.e.u.u.u.2.u.u.u.u.u.u.u.u.u.u.u.u.u.i.s.i.s.s.s.s.s.s.s.s.s.s.s.h.h.g.g.g.g.h.h.h.h.",
"e.e.e.e.e.e.e.e.e.e.*.*.*.*.*.*.*.*.*.e.*.*.*.*.u.e.2.2.2.2.2.2.2.2.2.3.2.2.2.u.u.u.u.i.i.u.i.3.9.s.s.s.s.s.s.s.s.s.s.s.f.g.g.g.g.h.h.h.h.h.",
"u.u.u.u.u.u.u.u.u.u.u.u.u.u.e.2.2.u.u.u.u.u.u.u.u.u.u.u.u.u.u.u.3.3.u.u.u.u.3.i.i.i.s.s.s.s.s.9.9.s.s.s.s.s.s.s.s.s.s.h.h.h.h.h.h.h.h.h.h.h.",
"u.u.u.u.u.u.u.u.u.u.u.u.u.u.p.p.p.p.p.u.u.p.u.u.p.p.p.p.u.u.u.u.i.i.i.i.i.s.s.s.s.s.s.s.s.s.s.s.h.s.h.h.h.h.h.h.h.h.h.h.j.h.h.j.j.j.j.j.j.j."
};
