/* XPM */
static char *result[] = {
/* columns rows colors chars-per-pixel */
"70 70 252 2 ",
"   c #3E151F",
".  c #3E1823",
"X  c #4A181D",
"o  c #551B1C",
"O  c #5D1D1D",
"+  c #651E1C",
"@  c #5B211E",
"#  c #69231E",
"$  c #73221E",
"%  c #461B25",
"&  c #4C1C24",
"*  c #4C1D2B",
"=  c #541D24",
"-  c #5B1E26",
";  c #531E2A",
":  c #651E22",
">  c #4C202E",
",  c #5C2324",
"<  c #54222C",
"1  c #5A2729",
"2  c #5B232C",
"3  c #4C2437",
"4  c #552434",
"5  c #5B2433",
"6  c #552839",
"7  c #5B2B3C",
"8  c #632323",
"9  c #6A2627",
"0  c #63232D",
"q  c #732425",
"w  c #772729",
"e  c #7C2A2D",
"r  c #75312E",
"t  c #682933",
"y  c #792B32",
"u  c #673439",
"i  c #783338",
"p  c #4E2B42",
"a  c #582C44",
"s  c #593248",
"d  c #5B3B56",
"f  c #663449",
"g  c #73344A",
"h  c #663B55",
"j  c #793C55",
"k  c #5E415D",
"l  c #764649",
"z  c #66415D",
"x  c #76435A",
"c  c #565167",
"v  c #674664",
"b  c #784864",
"n  c #7A546C",
"m  c #795A77",
"M  c #666478",
"N  c #832926",
"B  c #842B2B",
"V  c #8A2D2C",
"C  c #88342B",
"Z  c #8C322D",
"A  c #93352D",
"S  c #852E33",
"D  c #8A3537",
"F  c #933433",
"G  c #943937",
"H  c #9B3B33",
"J  c #9C3B3B",
"K  c #A23F2F",
"L  c #A43E39",
"P  c #974231",
"I  c #9B453A",
"U  c #A84637",
"Y  c #AC4F36",
"T  c #A4423C",
"R  c #AD4B3B",
"E  c #B14C3C",
"W  c #B5553D",
"Q  c #883847",
"!  c #953B46",
"~  c #9B3D44",
"^  c #833F57",
"/  c #A43E40",
"(  c #9B4349",
")  c #94494B",
"_  c #8A4359",
"`  c #934355",
"'  c #9A4858",
"]  c #A94747",
"[  c #B34C42",
"{  c #B44B46",
"}  c #AA5644",
"|  c #B55343",
" . c #B95647",
".. c #BC5B4D",
"X. c #A44A54",
"o. c #AC4C52",
"O. c #A44A58",
"+. c #B14E53",
"@. c #AB555B",
"#. c #B85858",
"$. c #977E58",
"%. c #A16B45",
"&. c #BB6247",
"*. c #BC6353",
"=. c #8A4C64",
"-. c #984D62",
";. c #85526A",
":. c #9A5367",
">. c #885C75",
",. c #A14E60",
"<. c #A75663",
"1. c #B75D63",
"2. c #91637B",
"3. c #BD6263",
"4. c #B86569",
"5. c #B07074",
"6. c #C25C4C",
"7. c #C25E51",
"8. c #C2674E",
"9. c #C36355",
"0. c #C5655B",
"q. c #C46B5B",
"w. c #C86A59",
"e. c #C7725A",
"r. c #C56865",
"t. c #C56B64",
"y. c #CA6C63",
"u. c #C46B6A",
"i. c #D06C60",
"p. c #CC7364",
"a. c #C97568",
"s. c #CB746B",
"d. c #CC7A6B",
"f. c #D17766",
"g. c #D27B6C",
"h. c #C26D72",
"j. c #C77575",
"k. c #CC7B73",
"l. c #D37E75",
"z. c #BA843D",
"x. c #B58D52",
"c. c #978B74",
"v. c #B18F73",
"b. c #C99A50",
"n. c #D0A658",
"m. c #D3856E",
"M. c #CB8376",
"N. c #D58678",
"B. c #D6B471",
"V. c #E0BB71",
"C. c #EBCA73",
"Z. c #2C7EBB",
"A. c #367FB1",
"S. c #567390",
"D. c #737697",
"F. c #4C7CB0",
"G. c #7272AA",
"H. c #267DC5",
"J. c #2B7DC5",
"K. c #267ECD",
"L. c #2B7ECA",
"P. c #357EC6",
"I. c #297ED3",
"U. c #8E738B",
"Y. c #B37C83",
"T. c #37889F",
"R. c #3686A8",
"E. c #2982BC",
"W. c #3887BA",
"Q. c #3B92BD",
"!. c #488E94",
"~. c #72909A",
"^. c #71B29A",
"/. c #4E8BA7",
"(. c #538BAD",
"). c #4589B9",
"_. c #568BB9",
"`. c #4893BA",
"'. c #5695B8",
"]. c #698DAA",
"[. c #669AB6",
"{. c #5AA1B4",
"}. c #70A7B2",
"|. c #2C83C5",
" X c #2885C5",
".X c #2681CC",
"XX c #2B84CC",
"oX c #2E8ACB",
"OX c #3384C5",
"+X c #338CC6",
"@X c #3B88C3",
"#X c #3184CA",
"$X c #328DCB",
"%X c #3B8DCD",
"&X c #3593C6",
"*X c #3C93C5",
"=X c #3C9BC6",
"-X c #3693CB",
";X c #3A95CA",
":X c #3699CB",
">X c #3C9BCA",
",X c #2482D1",
"<X c #2B84D1",
"1X c #2D89D1",
"2X c #338CD2",
"3X c #388CD3",
"4X c #2E93D3",
"5X c #3794D1",
"6X c #3EA0C9",
"7X c #478BC4",
"8X c #578FC3",
"9X c #4499C7",
"0X c #4294CC",
"qX c #5599C2",
"wX c #4596D1",
"eX c #5CA1C8",
"rX c #76A9C6",
"tX c #72ADCA",
"yX c #8C9190",
"uX c #AE8E86",
"iX c #B0B290",
"pX c #8C97A4",
"aX c #A798A8",
"sX c #8CAAB3",
"dX c #ACBAAF",
"fX c #D78B82",
"gX c #D69386",
"hX c #E29B88",
"jX c #C5BA8E",
"kX c #96CF9B",
"lX c #A7D796",
"zX c #96CAA9",
"xX c #A4DBAA",
"cX c #EFD38A",
"vX c #E0CE9B",
"bX c #D6D1B3",
"nX c #8AB4CB",
"mX c #8AB8CA",
"MX c #95BBC9",
"NX c #92C2CD",
"BX c #98C6D8",
"VX c #AAC5CD",
"CX c #A3C9D8",
"ZX c #A5D2DE",
"AX c #BBD6DB",
"SX c #ABD4E4",
"DX c #B8DCE5",
"FX c #B8E1E9",
"GX c #D3DACD",
"HX c #C3DCE4",
"JX c #C7E5E9",
"KX c #D6F4F5",
/* pixels */
"G.G.U.G.G.U.G.8XwXwX6X:X6X6X6X6X6X6X6X6X6X6X6X6X6X6X9X6X6X6X6X6X6X6X6X6X6X6X6X6X6X6X6X6X6X6X6X6X9X6X6X6X6X6X6X6X6X6X6X6X6X6X6XwX6X6X6X6X6X9X",
"9XqXwX8X8XqX3XwX6X6X6X6X6X6X6X>X>X6X9X6X>X>X>X>X9X6X>X6X>X>X9X6X9X>X>X6XwX6X6X>X>X6X>X9X6X>X6X>X6X>X6X9X>X6X9X6X6X9X>X>X9X6X6X6X9X6X>X>X>X6X",
"6X>XwXwX9X:X>X>XwX6X6X6X6XwX>X>X9X>X>X>X>X>X>X=X>X=X>X>X9X>X=X=X>X:X6X>X>X>X>X>X>X>X>X>X>X>X>X>X>X>X>X>X>X>X>X>X>X:X>X>X>X>X>X>X>X>X>X>X>X=X",
">X0X;X3X>X>X6X>X6X5XwX6X6X>X>X>X>X>X>X>X>X>X>X>X>X>X>X6X9X0X>X=X6X:X5X6X>X6X>X>X>X6X9X>X>X>X>X>X>X>X>X>X>X>X>X>X>X>X>X>X>X>X6X>X;X>X>X>X=X=X",
">X>X>X>X>X>X>X>X>X>X>X>X>X>X>X>X>X>X>X>X>X>X>X>X>X>X>X=X=X;X>X=X=X=X=X>X9X>X>X>X>X;X>X>X>X>X>X>X>X>X>X>X>X>XwX>X>X>X>X>X>X:X;XwX6X6X6X6X>X>X",
"=X=X>X;X;X:X>X;X5X>X>X>X:X>X>X:X;X:X>X>X>X;X>X>X:X=X>X=X=X=X*X9X{.'.Q.:X>X:X:X>X>X;X>X:X>X;X;X:X:X>X>X>X>X5X5X>X>XwX5X:X:X=X>X6XwX5X>X>X>X>X",
"=X:X;X;X=X;X;X>X>X5X;X;X:X>X5X;X>X>X;X>X:X;X;X;X:X:X;X>X>X=X{.SXFXFXNX`.0X>X:X;X:X:X;X;X>X:X=X-X;X>X>X;X5X;X>X:X:X:X>X>X5X>X>X:X>X>X:X>X>X>X",
"-X:X:X;X:X;X:X;X;X;X:X5X>X;X;X;X;X;X:X;X;X:X:X:X;X:X>X5X:X`.SXAX}.mXJXMX`.;X;X:X;X=X*X;X5X>X;X:X:X;X5X;X;X;X:X>X5X:X;X;X;X:X>X:X:X;X=X&X;X;X",
";X:X:X&X=X&X&X:X;X;X;X-X:X-X:X;X-X-X:X;X-X:X&X;X&X:X:X-X-X{.JX}.*XW.mXDX`.:X>X&X&X'.tX{.W.:X&X*X;X:X-X:X-X;X-X-X;X;X;X-X:X;X:X;X;X&X-X&X&X;X",
";X-X;X&X&X&X-X:X-X;X-X:X-X;X-X-X;X-X;X-X;X&X-X=X:X&X&X:X-X`.DX'.*X&X).DXeX&X;X*XtXFXJXFXnX9X:X;X5X-X-X-X:X-X;X;X-X;X-X-X;X;X;X0X;X$X&X-X&X;X",
"-X&X-X&X&X&X-X4X5X;X-X;X-X;X;X-X-X&X-X-X&X*X&X:X&X=X&XQ.:XQ.BXNX`.4XR.BXtX&X-XqXFXsX'.BXJX'.5X*X5X5X-X-X5X;X-X-X5X5X-X;X-X;X;X>X*X-X-X-X-X-X",
"-X-X-X-X&X&X-X-X-X-X-X-X-X5X-X-X-X-X-X&X:X&X&X-X-X-X&X&X&X*XqXSX}.+X+XMXmXQ.Q.NXmXW.Q.'.JXeX3XQ.&X5X5X-X5X-X5X-X-X;X5X-X5X;X:X;X*X;X$X-X-X*X",
"-X-X4X-X&X&X&X&X-X-X-X-X-X-X-X$X-X-X-X-X&X&X-X*X-X$X:X&X-X$X+X'.NXeXW.sXFX(.}.ZX`.4XW.rXJX'.-X-X4X-X-X-X-X$X-X-X5X2X-X4X$X$X;X;X-X-X$X-X%X-X",
"$X$X$X$X+X&X+X&XoX-XoX$X-X$XoX-XoX-XoX-XoX+X-X;X:X+X+X+X&X$X&X$X`.NX'.[.KXAXJXmXW.8XMXHXtXW.$X$X4X$X$X$X-X$XoX4X$X-X$XoX$X;X-X*X*X-X;X$X+X&X",
"+XoX-X$X+X$X$X$XoX-XoX-XoX-X-XoX-X$X$X%X-X;X;X5X=X=X*X*X+X+X$X5XoX`.ZXsX}.CXBX/.tXHXHXeXW.4X$X*X*X$X4X$XoX-X3X$X-XoX-X-X$X-X%X-X-X5X-X-X+X-X",
"+X-X$X$X4X-X$X-X$XoX-X1X-X$X$X-X$X&X+X*X;X0XwXwX0X9X`.).).+X2X1X+XW.NXHX(.W.(.CXJXnX8X@X&X$XoX4X1X2X$X$X%X-X$X$X4X$X1X-XoX-XoXoX$X5X-X-XoX+X",
"$X$XoX&XoX&XoXoX+X$XoX$X$XoX+X$X+X+X%X0X9X9XwXwXqXtXBXBXNX}.8XF.#X'.AXHX{.NX}.KXsXR.3X3X2XOX+X%X4X1XoX$X$X+X-XoXoXoX$XoX$XoX$X$X$X4X$X%X%X$X",
"+X$XoX&X$XoX+X4X4X$X&X$X&XoX$X$XoX+X0XwXwXwXwXqX}.JXJXCXCXAXcX$.VXGXKX}.sXpXNXsXFX].W.W.W.).W.OX$X$X2X$XoXoX+XoX$X$X$X$X$X$X$X$X$X$X$X5X$X$X",
"$X$XoXoX$X&XoX&X+X$X$XoXoXoXoX$X+X-X0XwXwXwX>X`.ZXHX[.`.nXcXx.].VXAXmX/.NXNXNXpXmXAXZXSXDXDXSXtX7X+X$XoX$X-X$XoX$X$XoXoX$XoX X4X$X2X$X5X%X$X",
"oXoXoX+XoXoXoX XoXoX+XoXoX&X+XoXoX;X0X;X0X0X9X`.DXmX7XtXV.z.yX(.).}.VXCX}.[.pXx.sXpXN.sXrXrXMXFXCXQ.OX+XoXoXoX$XoX$XoX+XoX4XoXoXoX#X$X$X-XoX",
"oXoXoXoXoXoX XoX XoX&X+X+XoX$X+X$X*X*X*X*X>X0X).MXSX7XqXv.b.cXcXcXcXbXGXGXzXbXV.bXJXB.].OXP.W.'.DXtXW.XXoX+XoX$XoXoXoXoXoX$XoX#XoXoX$X$X$X$X",
"oXoXoXoXoXoXoXoX+XoXoXoXoXoXoXoX$X*X%X0X;X;X0X7X[.BXNX[.rXB.jXzXiXV.C.C.cXcXC.C.V.bXC.jX[.@X<XE.MXBX@XoX XoX1X$X4X$X2X$X$X$X2X2X#X2XXX$X$X$X",
"oXXX X4XoXoXoXoXoXoXoXoXoX XoX|.OX*X%X%X0X*X*X0X7X'.rXBXCXBXjXiX*X&XsXvXV.n.C.C.C.cXcXcXdXCXeX[.HXtXP.#XoXoX1X2X$X$X2XoX$X2X$X1XXX$X2X$X3X$X",
"oXXXoXoX XoXoX X|.oXoX XoXoXoXoXXX$X0X*X%X0X0X3X3X0X0X7X0X@X'.jX].:XsXGXV.v.AXyXn.x.n.b.yXSXHXJXCX7X#XXXoX$X4X1X1XXXoXoXoX#X2X2X2X$XoX$X$X|.",
"XXXXoXXXXXoXXXoXoXoXXXoXoXoXXXXX#X+X*X%X%X%X%X3X3X5X$X*X*XOX|.).+XOXCXdXV.yXAX).yXc.yXc.R.E.`.qXE.|.oXXX1X2XoXoXXXoXoX XoXoXoXoXoX2X2X$XXXoX",
"1XXXXX1XoXoX1XXXXXoXoXXXXXoXXXoXoX|.%X%X3X%X0X3X%X%X3X3X<XXXXXOXXX+XDXsXV.uXSX`.(.v.~.x.W.E. XXXoX1X.XoX#X<X1XXXoXXXXXXXXXXXXXXXoXXXoXXXXX2X",
"XX X X XXX|.XX|.XXXXXXXXXX#X#XXXXX|.$X$X%X%X3X3X%X%X$X1XXXXXXXXX XW.DXdXV.c.SX0XOX).).c. XXXXX.XXXXXXXXX<X1XXX#XXXXXXX XoX|.XXXXXXXXXXXXoX2X",
"XXXXoXoX|.oX X|.XXXXXXXXXXXXXXXXXX#XXX|.%X#X$X#X$X#XXXXXXX1XXX.XXXW.ZXbXB.v.DX).L.XXXXXX XoXXX1X<XXXXXXXXXXX1X1XXXXXXXXXXX#XXX#XXXoXoXXXXXXX",
"oXXXXX|.XXXXXXXXXXoXXXXXXXXXXXXXXXXXXXXX#XXXXX#XXX#XXXXXXXXXXX.X.XP.].xXn.v.BX@XXXXX<X<XXXXX,XoXXXXXXXXXXXXX1XoX#X#XXX<XXX#X1X#X$XXX$XXX.X.X",
"2XXXXXXXXXXXL.XXXXXXXXXXXXXXL.XXXXXXXXXX#XL.XXL.XXXXXXXXXXXXXXXXXXI.Z.iXx.~.7XI.<XXXL.#X1XXXXXXX,XXX1XXX<XXXXXXX1X1X#X#XXX#X1X#XXX#X1XXX XXX",
"XXXXXXXXXXXX|.XXXXXXXXXXXXXX|.XXXXXXXX<XXXXXXXXXXXXX<X<XXX|.XXXXXX<X,XpXx.F.I.XX<X<XXXXXXX.XXX,X.X<X.X,XXX<XXXXXXXL.J.P.L.J.L.#XXXXX1XoXXX1X",
"XXL.XXL.XXXXXXXXXX|.XXL.|.XXXXXXXXXXXXL.XXL.XXXXL.L.XXL.L.XXXX.X.XL.<XuXx.F.I.Z.<X2X4XoX,XXXXX,XXX.X1XXX.X.XL.XXJ.J.J.J.J.J.J.L.XXXX1XXXXX1X",
"XXXX.XXX XXX.XK.K.K.L.XXXX.X|.XXXXXX.XXX.X.XXXK.<X,XK.K.<X<X#XI.#X).pXB.%.S.,X.X,X4X4X<X<X1X.XXX.X,XXXL.XX<XL.J.J.J.H.J.J.J.J.J.L.<X<X<X<X1X",
"|..XXX XXXXX.X.XK.XX.X|.XX<X XXX X XXXXX.XXX.XXXL.<XL.P.P.F.U.U.5.5.5.5.4.5.D.S.G.G.F.F.P.P.K.L..XXX<X,XI.L.K.L.J.J.L.L.L.L.J.J.P.<X<X<X<XoX",
" X.X.X.X.X X X.XL.XX|.XXXXXXK..X.XXXXX.XXX.XXX7XG.~.U.5.4.4.h.1.#.@.@.@.<.1.4.5.:.:.:.U.U.U.D.7XK.XX.XK.K.K.L.L.J.L.K.XXL.XXP.P.#XXXXX<XXX<X",
"|.H.K.K. X.X.X.XK.K.K. X|.K..XK..X,XK.J.P.(.U.k.j.h.1.1.4.1.1.,.O.@.1.<.<.,.@.,.<.-.^ =.=.>.2.U.D.P.K..XK.K.L.L.L.L.I.I..XL.XXXXXX.X<X<X1X1X",
"%XJ.K.K.H..X.X.XK.K.|.XXXXJ.K.K.K.K.K.G.Y.h.h.j.h.h.h.h.h.h.4.1.,.4.h.h.1.:.<.<.:.-.-.:.-.;.b ;.n >.G.A.K.K.K.J.H.L.L.XX,XXXXXXXJ.XXXX<X1X1X",
"wXL.K.K.K. X X.XK.J.K. XJ.Z.J.K.L.].Y.j.h.h.h.h.j.h.h.h.h.1.1.3.1.1.4.1.1.<._ ' ` -.:.:.:.=.b ;.;.n v n D.F.H.H.H.L.XX<XXX<XXXJ.J.J.XX.X1XoX",
"wXL.K.I. XXX X.XK. X XE.!.{.].~.uXj.M.k.j.r.1.r.u.1.u.1.1.3.4.1.O.~ 1.+.,.O.^ Q ^ ! ` -.:.:.:.;.;.;.n b m U.G.Z.K.L.P.XXXXXXXXJ.L.XX<X<X<X1X",
"%XK.K.H.J.|.L.I.,XE.E.(.lXlXv.j.j.j.fXfXj.u.u.3.3.3.3.3.1.1.1.1.O.' @.+.' ^ ~ O.' _ ^ Q ^ =.j ^ b b b b b n D.U._.L.L.#XXXL.XX#XL.|.XXXX2XXX",
"XXK..X.X.X.X.X.XL.,XZ.kXiXM.k.l.j.h.j.j.r.r.u.r.3.u.r.1.1.3.1.#.@.O.O.' ,.X.! ! ! ^ ' ' -._ ^ j j j ^ b v z h D.U.G.XX#XL.<X<XXXJ.J.|.oX$XXX",
"H.I. X XH.Z. X XI.K.A.uXj.a.k.s.j.l.a.t.r.t.r.r.u.u.r.1.3.3.+.7.+.+.@.,.O.O.O.' -.` ` ,.,.-.^ ^ ^ j b b =.;.v v n >.U.A.#XL.<XL.XX|.|.oX$X$X",
"H.H.R./.^.}.R.Z.K.P.uXk.k.s.s.s.u.r.t.u.u.u.r.3.3.u.u.#.#.+.+.#.#.X.O.O.' O.O.' ' -.,.,.-.-.=.j j g j h h v v z k v >.aX_.XX.X<XXXP.OX$X#XXX",
" XA.^.xXlXlXkX/.Z.uXk.k.k.s.g.s.t.u.u.t.u.r.u.r.7.u.u.o.+.+.] +.+.] ~ ( X.X.~ O.' ` ,.` -.-.=.^ j j j j z v k k v k c U.aX_.XXXXXX#XOXOX+XOX",
"H.^.xX!.T.!.^.xXyXd.a.s.s.y.r.y.u.s.s.s.y.u.t.0.{ 7.7.+.7.1.O./ +.] o.O.! ~ O.X.O.O.,.' -.-.=.^ _ ^ j z h k k k z c k v U.aX8XP.OX#X$X#X XoX",
"Z.kXkXA.OX|.E.~.k.s.u.p.t.t.s.N.N.k.s.u.u.y.0...6.+.] #.r.1.+.O.+.@.#.<.o.X./ ' O.' ,.,.,.,._ g ,.=.b b z h k k z k v d k >.aX8X#X$X$X2X4X X",
"Z.^.kX!.|.oX@X5.k.l.l.s.N.N.N.fXfXl.u.y.r.r.r.0.0.7.7.r.r.1.O.X.1.+.+.1.+.o.X.O.' ' ! ! -.-.j g ^ g j h j h d d s d k d d v n U.W.$X X4XoX+X",
"H.R.kXzX{.R.U.M.fXfXfXgXfXgXfXfXN.s.y.y.y.7.0.0.i.#.3.7.+.+.X./ ] +.1.+.+.O./ ~ +.o.` O.` ` ^ -.^ j j g h d a p p p p a d k z n F.oX4X$XoX4X",
"K.J.!.^.zXdXM.fXhXN.gXgXN.fXN.N.l.y.y.w.y.0.r.0.0.#...+.{ ] ] O.] +.+.+.X.X.~ / / F ! ! Q ` -._ j h ^ g a a a a d a p p a k a h >.%XoXoXoX-X",
"K.L.|. XA.uXN.N.N.l.N.N.l.g.i.g.y.w.0.6...7.0...0...{ { / { { 7.+./ ] / / ~ ~ ! S B ! Q Q ! Q g a j j h g a 3 a h a a a p a d a b F.oX+X$X$X",
"K.I.L.|.].M.M.m.d.N.l.g.g.y.0.i.y.w.6.7.7.0.9...7.{ T { { / { { / / V V B S ! F Q ! ! Q Q Q Q 0 4 5 a 5 a a 3 a a a a a 4 a h h v m OX-X$XoX",
"K.L.J.@XgXN.k.p.s.g.g.g.m.y.0.y.0.....9.7.y.9... .U ]  .{ / / / ! F N F F ! o.~ ! S S y S S y - * 3 5 5 5 * * 4 a a a a 5 a a h f n (.+X$X4X",
"K..XI.pXhXN.s.d.p.g.m.m.g.f.r.7.6.7.9.9. ... .[ [ ] { L { L L L / B V F ! ! / ~ S S B w y y t 0 ; 5 ; ; * * 4 4 4 4 a a p 4 a a 7 n D.+X$XoX",
".XK.Q.gXgXN.f.f.y.g.g.g.g.y.9...6.i.9...{ { ..[ U L { L { L F F S B F / ] J / S S B e e : w t - ; 5 ; * * * ; 4 5 5 5 a 3 3 3 a 7 l ;.].-X+X",
"K.L.pXN.g.p.p.e.w.9.w.w.y.0.7.7.w.i.7.| ] [ [ { L L E 6.{ A V V V F S / / Q Q S S y : : y y : = ; ; ; ; * % * * 4 ; * 4 4 p 3 4 s f l n &X-X",
",XOXM.a.p.d.d.p.w.7...9.p.9.7.0.0.0.6.[ { E [ | E ] L L V N V V V V F / F S F Q S y 0 S y : - & * * ; * %   . . % * * ; 4 5 a 4 6 z s x S.+X",
"L.].m.g.g.m.m.i.9.....*.*.9.0.0.9.6.6.{ E L T @.] ] L L H V B F F F F F F S N q e S S Q t w : 5 & = & % % 6 > > * 3 3 3 ; 5 5 4 6 7 k u l 6X",
"XXuXm.N.g.g.m.w. ...9.....7.0.9.6.[ L 6.{ 6.*.} ) I L L T A F H / F F F F B q S B S Q y t i y 0 ; = - = 2 0 ; 4 * ; 5 5 * ; 4 4 6 7 7 u l /.",
"_.m.N.g.g.i.e.7...w.q. .6.7.7.6.E [ { { 6.6.*.] U I L L H Z H ] / J F ! S N S Q S F F i Q Q y t ; ; t - 0 2 5 5 5 - 0 0 ; * & ; 6 7 7 f l /.",
"~.m.N.g.g.f.i.6.....9. .{ E E E E [ { 6.6.{ E K A A H A A A A H / / / / S q q S : w S e Q S i i t 0 2 ; 0 5 5 5 5 5 5 - - * X % > 1 1 1 u /.",
"uXm.a.e.f.m.e.6.7.6.6.| E E E { 6.E E 7...E E H A A Z T P P F H L F F F S : q B 9 : q q y w q g t 0 - ; - 5 5 ; < 1 & < ; & X % & < 1 u r !.",
"uXa.*.*.e.e.e.w.9.9.6.E  .6.6.6.6.6.W 6.| E U P I A P Y } I J J / ! F F q B q S q : q D e : t t t 0 : ; ; - 2 ; 1 & % % & ; * ; 6 > 7 u u !.",
"v.e.8.w.f.m.w.w.w.7. .R { { 6.6.6.W Y *.} E U H G P D } } ] F D ! F S V B S q B q : e B 9 8 : 0 t 0 0 & = X , 2 X % % % X , 5 < u 1 1 u u S.",
"v.e.w.q.8.e.8. ...[ E U E E 6.W &.6. .} U U U A C D P I H F S S S B V S B e q y e 9 w : : y w y y 0 - X   X X 1 5 < ; < X = 2 - 1 1 1 u u M ",
"5.e.&.e.&.&.&.| E U U K E E Y Y W w.q.0.I P C A P P P i C Z N B B V V V N w r y e q w : + q q y 9 - = X X X * < - 2 = , = 2 t 1 1 1 1 u r M ",
"v.8.8.&.&.W W R U E U K R R Y Y E *.*. .Y I H I I I D C B N B B N V N N S B w e q w e 9 9 ) S w q : o X X X % , 2 , , o = , 8 1 1 1 1 1 u M ",
"5.*.8.&. .W U | U E K E U W U Y } ..&.Y Y I U P I P P C C C Z C N N N V V B q 9 q q : : 8 w q + : - o o o , o , 2 8 8 @ @ , , @ 1 1 1 1 1 M ",
"yX8.*.e.8.W Y E E E E W E U P Y | *.&.W W &. .U H C ) G A N N w $ V F A w y w @ O O + O o o o o o o O 8 8 8 , 8 O , : , O - 8 @ 1 1 1 1 1 c ",
"~.e.e.e.&.W U Y 6.U U | E U U R Y W &.&.&.W &.Y K H U A C $ $ $ C Z Z w o r r # # o # o @ @ o @ , # 9 $ w 9 # 8 8 8 @ # # @ @ @ 1 1 1 1 1 c ",
"~.m.a.e.e.&.Y  . .6.E Y  .Y U R U W W &.W Y Y Y K H V A N $ + N A w e q + 8 P C q # @ # # + o # 8 # # $ q # # q 9 8 # 9 @ , @ @ r 1 1 1 1 M "
};
