/* XPM */
static char *e3ead48bc608431a9da8361276f15ec6nBTHpjJoLfTfcUGj[] = {
/* columns rows colors chars-per-pixel */
"70 70 237 2 ",
"   c #312421",
".  c #533530",
"X  c #764837",
"o  c #636D38",
"O  c #2F3746",
"+  c #533F48",
"@  c #315D66",
"#  c #335A70",
"$  c #534F53",
"%  c #715758",
"&  c #4C725A",
"*  c #676B4E",
"=  c #745570",
"-  c #4D7C6D",
";  c #787979",
":  c #85513D",
">  c #915648",
",  c #A2584B",
"<  c #9A6946",
"1  c #977645",
"2  c #A4674E",
"3  c #A6734E",
"4  c #B86C57",
"5  c #B97258",
"6  c #835D63",
"7  c #92706E",
"8  c #AD7370",
"9  c #B47678",
"0  c #C4755D",
"q  c #D8715C",
"w  c #F66E52",
"e  c #F37457",
"r  c #F9795D",
"t  c #CA7766",
"y  c #D47C64",
"u  c #D57468",
"i  c #D87A68",
"p  c #C97B76",
"a  c #E87C67",
"s  c #F57E64",
"d  c #FA7E62",
"f  c #748834",
"g  c #758935",
"h  c #708C54",
"j  c #76876B",
"k  c #848E3C",
"l  c #879C3D",
"z  c #8AA33E",
"x  c #859042",
"c  c #8DA845",
"v  c #95A945",
"b  c #9BB747",
"n  c #A1BF4A",
"m  c #8F9076",
"M  c #A7837A",
"N  c #94A769",
"B  c #A3BA67",
"V  c #CF8F6F",
"C  c #DD8068",
"Z  c #E5846B",
"A  c #EC876B",
"S  c #EC836C",
"D  c #E98A6D",
"F  c #FB8165",
"G  c #F5846A",
"H  c #F4846B",
"J  c #FA856A",
"K  c #FC896E",
"L  c #F58C72",
"P  c #FC8D72",
"I  c #F69075",
"U  c #FE9176",
"Y  c #A7C54C",
"T  c #ADCC55",
"R  c #B1CF59",
"E  c #B7D857",
"W  c #BFE158",
"Q  c #ABC969",
"!  c #C4E85B",
"~  c #CAEF5C",
"^  c #CCF15D",
"/  c #315287",
"(  c #297097",
")  c #1E7FB2",
"_  c #256BA5",
"`  c #2D7AAD",
"'  c #3A7FA8",
"]  c #287BB7",
"[  c #2B7DBB",
"{  c #357DBA",
"}  c #515493",
"|  c #68588E",
" . c #4B7792",
".. c #707392",
"X. c #777798",
"o. c #6D5DAA",
"O. c #755EAA",
"+. c #5879AB",
"@. c #477BB6",
"#. c #507AB1",
"$. c #7563A7",
"%. c #6879A4",
"&. c #7C65B6",
"*. c #6E79B2",
"=. c #257EC5",
"-. c #2B7DC4",
";. c #267FCC",
":. c #2A7DCA",
">. c #347FC4",
",. c #287ED3",
"<. c #89738B",
"1. c #88758C",
"2. c #997586",
"3. c #A87884",
"4. c #896DCA",
"5. c #8F71D2",
"6. c #9374D6",
"7. c #9677D9",
"8. c #368693",
"9. c #2A82AA",
"0. c #3886A8",
"q. c #2584BB",
"w. c #2B81BC",
"e. c #3987B7",
"r. c #3E92B0",
"t. c #498D9B",
"y. c #568E95",
"u. c #49969B",
"i. c #589A9A",
"p. c #6C8586",
"a. c #718B92",
"s. c #69A38D",
"d. c #6AAA99",
"f. c #77AB99",
"g. c #79B79D",
"h. c #4988A9",
"j. c #589AA5",
"k. c #4889B9",
"l. c #578AB0",
"z. c #4894BA",
"x. c #5996B8",
"c. c #6886A5",
"v. c #6993B4",
"b. c #5FA0AB",
"n. c #69A9AA",
"m. c #7BB7A5",
"M. c #6CABB3",
"N. c #79A7B6",
"B. c #7EC3A1",
"V. c #1F86C4",
"C. c #2582C5",
"Z. c #2C83C6",
"A. c #2681CC",
"S. c #2B84CC",
"D. c #2989C9",
"F. c #2D8ACC",
"G. c #3183C6",
"H. c #3A86C7",
"J. c #338DC6",
"K. c #3B8CC4",
"L. c #3185CB",
"P. c #328DCB",
"I. c #3A8ECC",
"U. c #2E90C7",
"Y. c #2D92CE",
"T. c #2E99CF",
"R. c #3593C6",
"E. c #3B93C5",
"W. c #3C9BC6",
"Q. c #3593CB",
"!. c #3A95CA",
"~. c #349BCD",
"^. c #3C9BCA",
"/. c #2582D1",
"(. c #2A84D1",
"). c #2C8CD0",
"_. c #338CD1",
"`. c #388AD2",
"'. c #2D93D2",
"]. c #2F99D2",
"[. c #3194D2",
"{. c #3A94D4",
"}. c #329CD2",
"|. c #2FA0CF",
" X c #33A1CE",
".X c #34A4D2",
"XX c #36A9D6",
"oX c #458AC3",
"OX c #5D8AC1",
"+X c #4897C6",
"@X c #4293CC",
"#X c #439BCB",
"$X c #589AC3",
"%X c #4396D1",
"&X c #4898D2",
"*X c #689BC5",
"=X c #75AAC4",
"-X c #76AECC",
";X c #7BB2C7",
":X c #8A868E",
">X c #918E96",
",X c #B08C89",
"<X c #8DB284",
"1X c #89BB95",
"2X c #9595A6",
"3X c #A992B7",
"4X c #87B8A9",
"5X c #A6A6A9",
"6X c #B5B1B2",
"7X c #CB8B82",
"8X c #92CC96",
"9X c #94CA9C",
"0X c #AED68C",
"qX c #A6D699",
"wX c #B0E497",
"eX c #8DC7A8",
"rX c #95CDA3",
"tX c #98D5A9",
"yX c #A5D8A6",
"uX c #ACE3AB",
"iX c #88B7C5",
"pX c #88B9D3",
"aX c #A8BDD2",
"sX c #C4ACD8",
"dX c #D0B7E3",
"fX c #91C1D0",
"gX c #9AC6D3",
"hX c #A6CAD5",
"jX c #AFD0D9",
"kX c #AED4E2",
"lX c #B7DBE5",
"zX c #C5C5C6",
"xX c #CFCFEE",
"cX c #C5E4E8",
"vX c #E9E9EA",
"bX c #F4F4F4",
"nX c #FCFCFC",
/* pixels */
"+XOXx.l.*.*.v.OX+X#X^.^.^.^.^.^.^.^.^.^.^.^.^.^.^.^.^.^.^.^.^.^.^.^.^.^.^.^.^.^.^.^.^.^.^.^.^.^.^.^.^.^.^.^.^.^.^.^.^.^.^.^.^.^.^.^.^.^.^.^.",
"^.^.^.#XW.+X^.^.^.^.#X^. X^.#X^.^.^.^.^.^.^.W.W.W.W.^.^.^.^.^.^.^.^.^.^.^.#Xc.c.+X^.^.^.^.^.W.W.^.^.^.^.^.^.^.^.^.^.^.^.^.^.^.^.^.^.^.^.^.^.",
"^.^.^.^.^.^.^.^.^.^.^.^.^.^.^.^.^.^.^.^.^.^.^.^.^.^.^.W.#X@X^.W.W.}.^.^.x.V J K 9 #X^.^.^.^.^.^.^.^.^.^.^.^.^.^.^.^.^.^.^.^.^.^.^.W.W.W.W.W.",
"^.^.^.^.^.^.^.^.^.^.^.^.^.^.^.^.^.^.^.^.^.^.^.^.^.^.^.W.^.^.^.^.#XW.^.c.Z U U U a z.^.^.^.^.^.^.^.^.^.^.^.^.^.^.^.^.^.^.^.^.^.^.^.^.^.^.^.^.",
"^.^.^.^.^.^.^.^.^.^.^.^.^.^.^.^.^.^.^.^.^.^.^.^.^.^.^.W.W.^.W.+Xz.z.z.t U U U U p +X^.^.^.^.^.^.^.^.^.^.^.^.^.^.^.^.^.^.^.^.^.^.^.^.^.^.^.^.",
"^.^.^.^.!.!.!.^.^.^.^.^.^.^.^.^.^.^.^.^.^.^.^.^.^.^.^.W.^.!.z.pXhXgX,XP U U U U ,X!.!.^.^.!.^.^.^.^.^.^.^.^.!.!.!.!.!.^.^.^.^.^.^.^.^.^.^.^.",
"!.!.!.!.!.!.!.!.!.!.!.!.!.!.!.!.!.!.!.!.!.!.!.!.!.!.!.!.!.r.fXcXiX6XH U F d U P a.E.E.!.^.!.!.!.!.!.!.!.!.!.!.!.!.!.!.!.^.^.^.^.!.!.!.!.^.^.",
"!.!.!.!.!.!.!.!.!.!.!.!.!.!.!.!.!.!.!.!.!.!.!.!.!.!.!.!.!.z.lX4Xh.t U U J P U S l.+X$X+XE.!.R.!.!.!.!.!.!.!.!.!.!.!.!.!.!.^.^.!.R.!.R.!.^.^.",
"!.!.!.!.!.R.R.!.Q.Q.!.!.!.!.!.!.!.!.!.!.!.!.!.!.!.!.R.!.Q.e.kXN.1.K U U U U U i ;XcXcXkXx.R.!.{.[.Q.Q.Q.Q.Q.Q.Q.Q.Q.Q.Q.!.^.^.R.Q.!.Q.R.!.^.",
"!.Q.Q.Q.R.R.R.!.Q.Q.!.!.!.!.!.!.!.!.!.!.!.!.!.!.!.!.R.R.R.e.pXhXa U U U U U U 7XlXN.v.lXhXK.!.!.[.Q.Q.Q.Q.Q.Q.Q.Q.Q.Q.Q.Q.!.!.Q.Q.Q.Q.Q.!.!.",
"Q.Q.Q.Q.Q.R.R.Q.Q.Q.Q.Q.Q.Q.Q.Q.Q.Q.Q.Q.!.R.R.!.Q.Q.!.R.R.R.z.6XP U U U U U K 6X=XJ.e.iXlXK.!.z.Q.Q.Q.Q.Q.Q.Q.Q.Q.Q.Q.Q.Q.!.!.!.Q.Q.Q.Q.!.!.",
"Q.Q.Q.Q.Q.R.R.R.Q.Q.Q.Q.Q.Q.Q.Q.Q.Q.Q.Q.Q.Q.R.Q.Q.Q.Q.Q.Q.P.k.i U U U U U U e 6XK.[.z.hXpXK.Q.Q.[.Q.Q.Q.Q.Q.Q.Q.Q.Q.Q.Q.Q.!.!.!.Q.Q.Q.Q.!.!.",
"P.P.P.P.P.Q.R.R.R.P.P.P.P.P.P.P.P.P.P.P.P.P.P.Q.!.R.R.J.R.U.c.H U U U U U U H >Xk.v.jXkXz.J.Q.I._.P.P.P.P.P.P.P.P.P.P.Q.Q.R.!.!.!.P.Q.J.Q.!.",
"P.P.P.P.P.P.Q.Q.Q.P.P.P.P.P.P.P.P.Q.Q.J.P.!.@X@X^.^.E.E.J.J.9 U U U U U U U s :XgXcXgXz.J._.I.K.J.Q.P.P.I.I.P.P.P.P.P.P.Q.Q.Q.Q.Q.Q.J.J.Q.!.",
"J.J.J.P.P.P.P.P.P.P.P.P.P.P.P.P.P.P.J.I.^.@X+X%X%X+X+Xz.z.h.a U U U Z 4 U U 0 7 jX*XH.`.J.U.Y.'.'.P.P.P.P.P.P.P.P.P.P.P.P.P.P.P.[.Q.J.P.Q.!.",
"P.P.P.F.P.P.P.P.P.P.P.P.P.P.P.P.P.J.J.!.#X+X#X%X+X*XjXcXlX6XP U U I . y U U L .  .e.I._.P.K.K.J.F.F.P.P.J.P.P.P.P.P.P.P.F.P.P.P.P.I.I.P.J.Q.",
"P.P.P.P.P.P.P.P.P.P.P.P.P.P.P.P.P.J.I.%X&X&X%X#Xx.lXcXiXiX7XU U U y   X S P A   p.N.x.$X$X$XoXH.P.P.P.P.P.P.P.P.P.P.P.P.P.P.P.P.F.P.I.P.P.Q.",
"F.F.F.F.F.F.F.F.F.F.F.F.P.P.P.P.P.J.!.@X%X%X%XoX;XcXv.k.E.a U U U U X C P P U Z >XaXkXlXcXcXlXpXoXK.P.F.F.P.P.P.P.F.F.P.P.F.F.F.F.P.I.P.P.Q.",
"F.F.F.F.U.U.U.U.U.U.U.F.F.P.P.P.P.J.!.@X^.^.@XoX=XlXk.+Xc.J U U U U P U y 0 U P ,XN.h.oXoXx.=XlX-Xe.J.F.F.F.P.P.F.F.F.F.P.P.F.F.F.F.I.I.P.I.",
"F.F.F.F.F.F.F.F.F.F.F.F.F.F.F.F.U.J.!.E.E.E.!.@Xx.kX;Xk.9 U U U U U U > 3X3X6 6 >X; gX+Xe.H.w.M.lXk.P.F.U.F.P.F.F.P.F.P.P.P.P.P.P.F.I.I.P.P.",
"F.F.F.F.F.F.F.F.F.F.F.F.F.F.F.F.P.J.!.!.!.^.^.@X+Xx.gXhXZ U U U U U t 3XxXxXdX2XxXsXa.cX;XoXL.l.lXz.P.D.F._.P.P.P.P.P.P.P.P.P.F.P.P.I.P.F.F.",
"F.F.S.S.F.F.F.F.F.F.F.F.F.F.F.F.F.P.!.!.I.@XE.!.!.@Xz.v.K U U U U U 6 sX>X:X:X$ :X:XO =XkXcXaXjXpXe.P.F.F.).F.F.F.F.F.F.P._.P.P.P.P.I.P.F.F.",
"F.F.S.S.S.S.S.S.F.F.F.F.F.F.F.S.F.G.I.!.I.I.E.I.{.{.!.1.P U U U U I + 5XbXbX; >X>XaX..Z.oX=XgXpXk.G.F.S._.F.F.F.S.F.F.F.S._._._.P.P.P.F.F.P.",
"S.S.S.S.S.S.S.S.S.F.F.F.F.F.F.S.F.Z.J.I.I.I.I.`.`.I._.9 U U U U U L % bXnXbX  5X2XzX2X-.S.C.G.G.S.S.D.S.`.F.S.S.S.S.S.S.F.F.F.S.P.P.F.F.P.P.",
"F.S.S.S.F.F.F.F.S.F.F.F.F.F.F.A.F.S.Z.P.I.I.I.`.I.I.oXi U U U U U I M nXnXnXvX5XnXnX5X[ F.D.S.S.S.S.D.S.(.F.F.F.S.S.S.S.S.F.F.S.S.S.S.F._.F.",
"F.F.F.Z.Z.Z.Z.Z.Z.S.S.S.F.F.S.S.S.S.F.F.P.P.P.P.P.I.@.Z U U U U U U 8 bXnXnXbX6XnXnX2XS.S.S.S.S.S.S.S.S.S.F.S.F.S.S.S.S.F.F.F.S.S.S.S.S.F.F.",
"S.F.F.S.F.F.F.F.Z.F.F.S.S.F.S.S.S.F.S.S.F.S.S.S.S.S.#.L U U U U U U Z ,XbXnX6Xm bXvX# S.S.S.S.S.S.S.S.S.S.S.L.S.F.S.S.S.S.S.S.F.F.S.S.S.S.F.",
"F.`.S.S.F.F.S.S.S.S.S.S.S.S.S.S.S.S.S.S.S.S.S.S.S.S.%.P U U D y U U U y 7 M t t 7 8 <.S.A.S.S.S.S.S.S.S.S.S.S.S.S.L.L.L.S.L.S.S.P.F.S.S.S.S.",
"S.S.S.S.S.S.S.S.S.S.S.S.S.S.S.S.S.S.A.A.A.S.S.S.S.S.1.U U U > : L U U U U U U U U U a #.A.S.S.S.S.A.A.S.S.S.S.F.S.:.:.:.:.S.S.S.S.).S.S.F.F.",
"S.S.S.A.S.A.A.A.A.S.S.S.S.S.S.S.S.S.A.A.A.S.S.S.A.G.p U U L 0 i > U U U U U P U L 4 : . # A.S.S.A.A.(.A.A.A.S.S.=.-.-.-.-.-.S.S.S.(.S.S.F.).",
"A.A.:.S.S.S.S.A.;.;.:.S.S.S.S.S.S.S.S.S.S.S.A.A.A.@.H U U U U U D > 2 0 t t 4 , , y U U X.A.A.A.A.A.A.A.A.A.Z.-.-.-.-.=.-.-.-.L.(.(.S.S.).F.",
"=.S.S.S.S.S.S.A.;.;.A.S.S.F.A.S.S.S.S.S.S.A.A.A.S.3.U U U U U U U U D 0 5 0 Z U U U U K ..A.A.A.A.A.A.A.A.A.-.-.-.:.:.S.S.-.-.L.(.(.S.S.F.S.",
"H.C.S.S.S.A.S.S.A.;.A.S.S.S.S.A.A.A.A.A.S.S.S.Z.2.P U U U U U U U U U U U U U U U U U P 2.S.A.A.A.A.A.A.A.A.:.:.:.A.A.A.S.-.L.L.S.(.S.S.S.S.",
"+XK.Z.A.;.C.C.S.A.;.:.S.Z.Z.A.A.A.A.A.;.A.S.{ 8 K U U U U U U U U U U U U U U U U U U U w <.:.;.;.A.A.A.;.;.:.:.;.A.(.A.S.S.L.S.S.A.(.).S.S.",
"+X@X-.;.;.;.A.S.S.;.;.S.S.S.;.;.;.;.;.;.A.@.p P U U U U U U U U U U U U U U U U U U U U J s 2.:.;.A.A.A.A.;.:.=.:.A.A.A.A.S.Z.-.S.S.S.).S.S.",
"+X&XL.:.,.A.A.A.A.;.:.S.D.=.-.=.;.A.;.;.+.a U U U U U U U U U U U U U U U U U U P U U U U d U p @.;.A.A.A.;.;.=.:.S.S.A.A.S.Z.-.S.A.(.).S.S.",
"+X&XL.;./.A.Z.Z.A.,.C.C.w.u.m.n.0.-.;.%.a H U U U U U U U U U U U U U U U U U P w U U U U P F U Z %.;.;.;.A.;.:.:.:.S.S.S.S.S.-.S.A.(.).F.F.",
"&X%XS.;.;.C.D.S.,.,.C.[ b.qXqXqX8X0.%.S d F U U U U U U U U U U U U U U U U U U P U U U U U K J U H X.A.;.A.(.;.:.:.L.S.A.S.S.=.Z.S.F.).S.S.",
"&X_.;.;.A.D.D.A.Z.:./.[ rX1X' y.qX:XZ U U U U U U U U U U U U U U U U U U U U U U U U U U U U d P U L <.A.A././.;.:.L.G.S.S.A.S.Z.Z.F.P.L.L.",
"_.=.A.A.w.w.[ w.C.;.A.] rXj.w.` 1XZ U U U U U U U U U U U U U U U U U U U U U U U U U U U U U P r U U L <.A.(.(.A.S.L.L.S.A.A.S.Z.Z.P.P.F.L.",
"=.C.C.9.i.eXeXj.{ =.S.[ B.i.-.0.V P U U U U U U U U F r U U U U U U U U U U U U U U U U U U w U d K U U H +.S.A.A.S.S.L.Z.S.(.A.G.H.P.L.Z.F.",
"A.V.` m.yX1X8XyX4X9.Z.] d.d.-.p.J U U U U U U U U d w J U U U U U U U U U U U U U U U U U U J U K F U U U p >.S.S.S.S.L.F.Z.F.F.F.P.G.Z.F.F.",
",.C.h.uXi.9.9.t.eXm.0.] d.1X .q U U U U U U U U F F U U U U U U U U U U J d U U U U U U U U U U P r U U U L +.S.A.S.S.).P.L.G.P.P.P.F.F.F.F.",
",.:.j.wXt.S.G.-.0.4XyXs.8XqX; J U U U U U U U K F U U U U U U U U U U U K K U U U U U U U U U U U r U U U U 3.A.A.(.(.(.S.P.L.P.P.).F.F.F.P.",
"A.A.e.rXg.0.q.:.-.0.g.wXqXd.8 U U U U U U U P r U U U U U U U U U U U U U U U U U U U U U U U U U r U U U U i L.(.(.(.(.S.P.L.G.F.).F.F.P.J.",
"A.=.:.u.rXrXg.b.z.z.8.y.h.8.y U U U U U U U d P U U U U U U U U U U U U U U U U U U U U U U U U U r U U U U H @.S.S.S.S.S.Z.G.G.F.F.F.F.P.P.",
",.Z.:.9.0.j.n.n.b.M.eXqXm.s.H U U U U U U d K U U U U U U U U U U U U U U U U U U U U U U d F U P d U U U U K %.L.L.L.F.S.Z.Z.L.F.F.F.F.Q.Q.",
"A.;.A.A.A.C.[ =.[ ` 8.8X0X<XH U U U P U s q U U U U U U U U U U U U U U U U U U U U U U K r r U F s U U U U P 1.Z.Z.Z.G.G.F.F.P.P.F.F.F.F.U.",
"A.;.A.S.-.Z.Z.A.,.,.:.1X0Xj S U U F r J X v 2 D U P U U U U U U U U U U U U U U U U U U U K U D % X.S U U U U <.S.F.S.Z.G.F.F.F.F.F.F.F.Y.Y.",
"A.;.A.(.(.S.A.A.C.q.t.Q 0Xp.S U U P K 7 @ z z k < 0 S U U U U U U U U U U U U U U U U U D 4 : k o ] +.a U U P X.F.).F.F.F.F.F.P.F.F.F.F.Q.Q.",
"A.A.A.A.C.q.S.[ 0.d.qX0Xs.8XD U U P V s.@ ! E z l z l x 1 3 5 0 t y i C C C y 0 5 < < o g v v $ | _ (.@.u P a e.F.F.F.F.U.F.P.P.F.Y.Q.Q.Q.J.",
"A.A.A.A.A.-.h.g.rXrXd.0.u.rXm A A 7 f.yX- T ~ ^ ^ E b v l g g g g g g g k l l c c c x * * = &.7.&._ (.(.k.2.X.F.F.F.F.F.P.P.P.P.P.Q.Q.Q.Q.R.",
";.A.A.A.-.j.qXrXi.' [ ] M.i.) y.0Xt.{ n.9Xc ^ ^ ^ ~ ^ ^ ^ ! E T Y b b b b Y j $.O.O.O.$.6.4...6.O._ S.).).).F.D.D.F.F.F.P.P.J.P.P.Q.Q.Q.Q.!.",
";.A.A.A.0.qXrX0.q.A./.0.N.{ D.0.rXn.-.0.m.h ~ ! ^ ^ ^ ^ ^ ^ ^ ^ ^ ^ ^ ^ ^ ^ B 4.6.6.j m 6.&.R O.} ] S.S.F.).P.F.F.F.F.F.Y.U.U.J.P.Q.Q.R.R.Q.",
";.;.A./.u.wXs.w.q.A.:.n.n.-.Z.[ b.tXh.9.t.h | $.B ^ ^ ^ ^ ^ ^ ^ ^ ^ ^ ^ ^ ^ ! ..6.$.E $.6.5.N R & S.S.S.F.F.F.F.F.F.Y.Y.Y.Y.Q.Q.Q.Q.Q.!.Q.~.",
";.A.A.A.t.wXs.] S.{ l.tX0.w.L.(.0.9X9Xs.f.<X$.7.X.^ ^ ^ ^ ^ ^ ^ ^ ^ ^ ^ ^ ~ ~ E N R N 6.6.7...! # F.F.F.F.F.F.F.Y.Y.Y.Y.Y.Y.Q.Q.Q.Q.Q.!.Q.T.",
"A.A.A.S.{ m.tXd.i.d.eXx.w.D.A.A.Z.0.9XuXyXd.| 5.N ^ ^ ^ ^ ^ ^ ^ ^ ^ ^ ^ ^ ^ ^ ^ ^ ^ m 5.4.$.Q T ( F.F.).).'.'.'.'.'.'.'.'.Q.Q.U.Y.Q.Q.!.Q.~.",
"(.A.S.S.A.0.n.4Xm.n.0.Z.S./.C.A.(.S.0.r.0.{ } &.! ^ ^ ^ ^ ^ ^ ^ ^ ^ ^ ^ ^ ^ ^ ~ ^ ^ ! B B E ~ c [ F.F.).'.'.'.'.'.'.'.'.'.Q.Q.Q.T.T.~.!.!.}.",
"(.(.(.A.(.S.Z.G.w.S.S.S.S.(.A./.(.(.A.A.A.(./ $.~ R p.N ^ ^ ^ ^ ^ ^ ^ ~ ~ ^ ^ T g ! ^ ^ ^ ^ ^ h ).'.'.'.'.Y.Y.Y.Y.].'.'.Y.!.!.Q.].].T.~.~.}.",
"(.(.(.(.(.(.(.(.A.(.(.(.S.(.(.(.(.(.(.(.(.(./ 4.; &.7.&.R ~ ^ ^ ^ ~ T c b l g c ~ ^ ^ ^ ^ ^ ^ & '.'.'.'.'.Y.'.'.'.].].].Q.!.!.~.].].~.~.~.}.",
"S.S.S.S.(.(./.(.(.(.(.(.S.S.(.S.(.(.(.(.(.(.} 6.7.7.6.5.N ~ ^ ^ ^ ^ h _ @ W ^ ^ ^ ^ ^ ^ ^ ^ ~ & '.'.'.'.'.'.'.'.].].].'.Q.!.!.~.].T.~.~.^. X",
"S.S.(.F.A.A.A.D.A.(.(.(.S.S.S.S.A.S.(.S.S.S./ o.4.7.7.4.Q ~ ^ ~ ^ ^ & F.( n W ~ ~ ~ ! E n x & ` '.'.'.'.'.'.].].].].].].}.Q.!.~.T.T.~.^.^. X",
"D.D.F.F.D.D.D.D.D.F.(.S.S.S.S.S.(.F.S.S.S.F.S.` , = | | T E E n l & ` F.D.( < 3 1 1 < < 5 7 Y.'.'.'.'.'.].].T.T.T.}.].].].~.^.~.~.~.^.^.^. X",
"D.D.F.F.F.F.F.(.(.F.F.F.F.F.F.F.(.F.F.F.F.F.F.F.q I Z 5 2 2 2 0 q K.F.).).).q U U U U U J X.[.'.'.'.'.].].].].T.T.}.}.].].~.^.^.^.^.^.^.^. X",
"(.(.(.F.F.F.F.F.F.F.F.F.F.F.F.F.).).(.).).F.F.).2.P U U U P P P 8 F.'.).).F.1.J U U U U u oX'.'.'.'.'.].}.}.}.].}.}.}.}.}.}.~.^.^.^.^.~. X X",
"(.(.).).F.F.F.F.(.F.F.F.F.F.F.F.).).F.).F.F.F.F.k.F U U U K w a l.'.'.'.'.'.J.9 K U P a c.'.'.].].].].].}.}.}.}.}.}.}.}..X.X~.~.^.^.^. X X.X",
"(.(.(.).).).F.F.(.F.F.F.F.F.F.F.F.F.F.).F.F.F.F.F.9 P U U P H 1.Y.'.'.'.'.'.'.K.2.t 9 l.'.'.].}.].}.}.}.}.}.}.}.}.}.}.}..X.X X X X X.X.X.X.X",
").).).).).).).).).).F.F.F.F.F.F.F.F.F.).F.F.F.F.'.k.t J P H 2.P.Y.Y.Y.Y.Y.Y.Y.Y.Y.Q.Q.}.].'.].T.~.}.~.}.}.}.}.}.}.}.}.}.|. X X X X.X.X.X.X.X",
"'.'.'.'.'.'.'.'.'.'.'.'.'.'.).Y.Y.Y.'.'.'.'.'.'.'.'.K.%.1.c.Q.Y.Y.Y.'.'.'.'.Y.'.].].}.}.}.}.}.~.~.}.}.}.}.}.}.}.}.}.}..X.X.X.X.X.X.X.X.X.X.X",
"'.'.'.'.'.'.'.'.'.'.'.'.'.'.[.[.[.[.[.'.'.[.'.'.[.[.[.[.'.'.'.].].].].].].}.}.}.}.}.}.}.}.}.}.}..X}..X.X.X.X.X.X.X.X.X.XXX.X.XXXXXXXXXXXXXXX"
};
