/* XPM */
static char *result[] = {
/* columns rows colors chars-per-pixel */
"70 70 86 1 ",
"  c #F25F1F",
". c #F87D05",
"X c #F6740D",
"o c #F77B0B",
"O c #F46C15",
"+ c #F2641D",
"@ c #F36A1A",
"# c #F57312",
"$ c #EF5E2E",
"% c #F15724",
"& c #F15A25",
"* c #F05A29",
"= c #F16222",
"- c #EF742C",
"; c #EF7829",
": c #F07D24",
"> c #ED6335",
", c #EE6C32",
"< c #EC6539",
"1 c #E96D46",
"2 c #E67653",
"3 c #E57956",
"4 c #E47C5B",
"5 c #E37F60",
"6 c #F78106",
"7 c #FA8601",
"8 c #F78B07",
"9 c #F98800",
"0 c #F78B08",
"q c #F48F14",
"w c #F2851D",
"e c #F38A19",
"r c #F18121",
"t c #F19423",
"y c #EC9B35",
"u c #EB953B",
"i c #EC9B39",
"p c #E98D44",
"a c #E7844C",
"s c #E8874A",
"d c #E99042",
"f c #E99F44",
"g c #E68050",
"h c #E6A34E",
"j c #DD9C75",
"k c #DB937E",
"l c #DC9979",
"z c #E18467",
"x c #E08569",
"c c #DFA66D",
"v c #DFAE6F",
"b c #DEA172",
"n c #DEAF73",
"m c #DBB27C",
"M c #E0AB67",
"N c #E0AC68",
"B c #DA9784",
"V c #D99987",
"C c #D79E8E",
"Z c #D89E8E",
"A c #DAB582",
"S c #D8B88B",
"D c #D6A294",
"F c #D4A69A",
"G c #D5BC97",
"H c #D4BD9B",
"J c #D1AFA6",
"K c #D1AFA8",
"L c #D2B4A3",
"P c #D1B1A9",
"I c #CEB9B7",
"U c #CDBBB9",
"Y c #CFC4AF",
"T c #D0C4AE",
"R c #CFC4B1",
"E c #CDC7B9",
"W c #CCC8BC",
"Q c #C9C5C6",
"! c #CBCBC2",
"~ c #C9C5C9",
"^ c #C8CBCB",
"/ c #C6CDD3",
"( c #C7D0D2",
") c #C4D3DD",
"_ c #C3D6E3",
"` c #C2D8E6",
/* pixels */
"*******2QA999996O=******$D!y77997#=*******2QA799996@&******$D!y79999#+",
"******%x_T0996#=********$U_h779o@=*******%z_T0996#=********$U_h799o+*$",
"******&x_T06O=**********$I_h7#@***********x_T06#=***********U_h7o@&$*$",
"BKKPKKJU)(HLPKKPKKPLKKKKP/_RHLPKPKKKPKPPPLU)(HLPKKKPKJPPPPPP/_THLKKKKl",
"^```````__``````___`````_____`_``___```````__`````____``````____)````^",
"fMNNNNNNNNNNNNbkI_TMNNNNNNNNNNNNjZ)(mNNNNNNNNNNNNblI_TMMNNNNNNNNvccjk5",
"777777777777.O&%D`A77777777777X+%1/(t7777777799.O&%D`A77777777777X+%%%",
"99999999976@=&&&D`A799997778#=&*%1/(t79799799o@=**%D`A779999976#=&&%$$",
"99999997o@&****&D`A7999997X=****&1/(t7999796@&&**&&D`A7799777#@*%$%%$%",
"999999o@=******&D`A99996#=******&1//t7999oO&*****&&D`A77998#=***$&&$%$",
"9997oO=****&***&D`A797#+&*&***&*&1/(t77o@=********%D`A777#=&****&$&*&%",
"0qe;,<<<<<<<<<<>F_Sqr,<<<<<<<<<<<2/(ye;,<<<<<<<<<<<F`Sqr-<<<<<<<<<<<<>",
"H!!QQQQQQQQ!QQQQ/)(!QQQQQ^QQQQQQQ~))!!QQQQ!^QQQQ~~!/)(!QQQQQQQQQQQQQQJ",
"E)))))))_)))))))))))))))))_))))))))))))))_)_)))))))))))))))))_)))))))E",
"tyiiip2V_Wfiiiiiyiiyiiua4W_nyiyiiiiiiiiip2B)Wiiiiiiiyiiyyus4Q_nyiiyuyt",
"777oO&%z_T97777777777O %$I_h7979777777.+&%z_T89977777777#&%*I_h7777999",
"7X+&&$%z_R89999999.#=***$U_h79799996o@***&x_T099799976#=***$U_h7999999",
"@*$%$&%z_Y079979.#=%$***$U_h799999o@*****&x_T0997996#=*****$U_h799997o",
"$$%$$&&x_Y09976#=$*$%$**$U_h7777o@*******%x_T07776#=*******$I_h7999o+*",
"%&%&%%%z_Y87.# &*%%%%*%%$I_h77o+*%%*%&%%%%z`T87.#=%*%*%***%*I_h77o+&%*",
"1333332V_Wfu3333333333334Q_nys334242423432V_Wida223333234224Q_nus23331",
"U)))))))_))))))))))))))))))))))))))))))))))___)_)))))_))))))_))))))))U",
"H!!!!!!!!!!!W!!Q/_/!!!!!!!!!!!!!Q~))!!!!!!!!!!!!!!~/)/!!!!!!!!!!!!!QQJ",
"0qqqqqqqqqqqqw->F`Sqqqqqqqqqqqe:,2//yqqqqqqqqqqqw->F_Sqqqqqqqqqqqe:,<$",
"99999999999oO&&%D`A7999999997#+*%1/(t777999999oO=&%D`A7777999796X+$%%$",
"999999999o@=%$$%D`A79999997#=****1/(t79997996@=**&*D`A77999999o=&*&$$%",
"9999999oO&$$$%$&D`A799996#=******1/(t799876O&*****&D`A779797#=**$%$&%$",
"999996O*$$&%%$%%D`A7998X@&******%1/(t9976O&*******&D`A7797#==***%$%$$%",
"977.O%%%%%&&&&%%D`A7.X+%&&&%&%&%%1/(t7oO%%%%%%%%*%%Z`A77X+&%*%%%%%&%&%",
"hcclkkkkkkkkkkkkI_TMjkkkkBkkkkkkkZ/)mNlkBkkkkkkBBkkI_TMjkkkkBkkkkkkkkz",
"!```````)_```````__`__`_`_)_````____``_`_`___``````___````_`__``````_^",
"vGHHHHLU)(HHHHHHHHHHHHHLK/_RHHHHHHHHHHHHHLU_(HHHHHHHHHHHHGLP/_RGHHHHHv",
"9998X@&x`T099999999886O=$I_h77997779987o@&x_R099999999976O=$U_h7999999",
"97o@**%x_T0999999996#=**$E_h799977999o@**%x_R0999999996#=**$U`h7999999",
"X@****%x_T09977796O=****$U_h7999998o@****%x_R8799999o#=****$U_h7999999",
"******&x`T099986#=******$U_h79979o+&*****&x_R07999.#=******>U_h79997X@",
"******&x_T0976#=********$U_h776o@********%x_T0996#=********$U_h779X@**",
"******%x_T06#&**********$U`h7o@**********&x_T06#=**********$U_h7o@*$**",
"VPPPKKJE)(LLKKKKKKKKKKKKP/_THJKKKKKKKKPKKKU_/HLPKKKKKKKKKKKK/_RHPPKKKB",
"^`````_`_`````_____`````____``````__```````__``````_`_`````____``_```^",
"fMNNNNNNNNNNNNMkI_TNNNNNNNNNNNNNlZ()mMNNNMNNNNNNMblI_TNNNNNNNNNNMMMjk5",
"777777777777.O&%D_A77777777777X+%1/^t7777777777.O%%D`A7777777779.X+%%%",
"99999977896@=**%D`A799779996X+***1/(t999797796@*%*%D`A797999996o+$%***",
"999999976O&*****D`A7997798X=*****1/(t7999976@=****%D`A7979996#=*$%$***",
"9977976@&*******D`A79996#=******&1/(t77996@&******%D`A79997#@******$**",
"99976@=****&***%D`A797#@***&***%*1//t77o@=&**&****%D`A797#=********%&*",
"0qe;,<<<<<<<<<<>F`Sqr,<<<<<<<<<<>2/(ie;,<<<<<<<<<<<F`Sqr,<<<<<<<<<<><>",
"H!^Q~QQQQQQQQQQ~/_(!!QQQQQQQ!QQ!~~_)!!QQ~~~~!QQQQ~~(_/!QQ!QQQQQQQQQQQJ",
"E)))))))))))))))))))))))))_))))))))))))))))))))))))))))))))_)))))))))E",
"tyyiyp2V`Wfiiyyyiiiiiyus4Q_nyiiiyiyiiiiid2V_Efiiiiyyiiyyiua4Q_nyyiiiit",
"797o+&%z_Y99979999997#=%$I_f7777777977o+&%x_T8777777777.#=%$I_h7777999",
"7o+&**%x_Y099999996O&&**$I_h79997777o@**&&x_T899999976#=&&&$I_h7999999",
"+*****&x`T0799996#=*****$U_h777799o==****&x_T0999976#=*****$U_h799999o",
"******%x_T07996#=&******$U_h7777o@=******&x_T09977#=*******$U_h7999X+&",
"&&&&%%%z_T87.#=%%%%%%&&&$I_h77X@%***%%&%%%z_T077#&%%**%*****I_h79.+%%$",
"1342432V_Wipa432424424334Q_nya222333424332V_Wipg333333333223Q_nys32321",
"W))))))__)))))))))))))))))_))_)))))))_)))))_)))))))))))))_)))_)))))))U",
"H!!!!!!!!!!!!!!Q()(!!!!!!!!!!!!!~~))!!!!!!!!!!!!!!~()(!!!!!!!!!!!!!QQK",
"0qqqqqqqqqqqqe->F_Sqqqqqqqqqqqe:,2/(yqqqqqqqqqqqw->F`Sqqqqqqqqqqqe:,<$",
"77997799799o@&*&D`A7777799776X@&%1/(t7777789996@&*%D`A7777779777X+$*&$",
"999999998oO&***&D`A79999976o=***%1/(t77779996@=***%D`A77999997#=&*****",
"99999796@=*****&D`A799978X=******1/(t797976O&*****%D`A779997#@********",
"99997o@=*******&D`A7997#=*******%1/(t799oO=&******&D_A7798#=****$*****",
"777.O&&&%%%&&%%%D`A77X+&&%&%&%&%%1/(t7.O%**%*&&%&%%D_A77X+&%&%&&%&%&%&",
"fMclBBkkkkkkkkkkI_TMbBkkkkkkkkkkkC)(mclBkkkkkkkkkkkI_TMjkkkkkkkkkkkkk5",
"^_``______```````__``````__```````)_``````___```````__``````__```````^",
"vHHHHHPU)(HHHHHHHHHHHHHLP/)RHHHHHHHHHHHHHLU)/HHHHHHHHHHHHHLP/)RHHHHHHv",
"9999X@%x`R099999997796#&$U_h79999999996o+&x`R09799999997o#=$U_h9999999",
"97o@**&x`T0999999996#=$%$U)h799999999X@%*&x_T8999997996#=**$I_h9999999",
"o@****&2QA97999977#=%$%$$D!y9999999o@*&$*&2QA99999997#=****$D!y7999999"
};
