/* XPM */
static char *_fee5b61dc7e44fd8186cc81e494d094pvIGCqbdCzh90RQy[] = {
/* columns rows colors chars-per-pixel */
"70 70 256 2 ",
"   c #180503",
".  c #061203",
"X  c #280905",
"o  c #390A05",
"O  c #35170D",
"+  c #0B3006",
"@  c #303311",
"#  c #3B3A34",
"$  c #490F09",
"%  c #590903",
"&  c #48130B",
"*  c #57180A",
"=  c #6C1006",
"-  c #492515",
";  c #572619",
":  c #6E2712",
">  c #522E27",
",  c #683125",
"<  c #11500C",
"1  c #345112",
"2  c #1C6618",
"3  c #2A6C1B",
"4  c #395927",
"5  c #336F24",
"6  c #367728",
"7  c #4B681C",
"8  c #6B5626",
"9  c #4B7129",
"0  c #705745",
"q  c #6E624F",
"w  c #8A140D",
"e  c #A4160F",
"r  c #982D15",
"t  c #943228",
"y  c #AD3930",
"u  c #935217",
"i  c #A54D10",
"p  c #A75918",
"a  c #B25B16",
"s  c #A8651E",
"d  c #B9651A",
"f  c #A85925",
"g  c #93602C",
"h  c #B0702F",
"j  c #B97728",
"k  c #C15B1C",
"l  c #C26A1A",
"z  c #C75B2B",
"x  c #C57725",
"c  c #CE712C",
"v  c #B93B40",
"b  c #946C4C",
"n  c #B46D4E",
"m  c #A4655E",
"M  c #CB7E52",
"N  c #C46561",
"B  c #3A8328",
"V  c #488A2D",
"C  c #448635",
"Z  c #55934B",
"A  c #699A5E",
"S  c #BB8535",
"D  c #C7862C",
"F  c #D28F2C",
"G  c #C78A34",
"H  c #CC9339",
"J  c #D3983A",
"K  c #ED963C",
"L  c #D8A33D",
"P  c #B18E58",
"I  c #989273",
"U  c #B3956B",
"Y  c #B6A577",
"T  c #C79945",
"R  c #D29A4C",
"E  c #DAA748",
"W  c #D5AD52",
"Q  c #DCB755",
"!  c #E8A94D",
"~  c #E2B54D",
"^  c #E5BA59",
"/  c #D79866",
"(  c #CAA96F",
")  c #DABA65",
"_  c #E7B967",
"`  c #EAC65B",
"'  c #F1C45F",
"]  c #DFC267",
"[  c #E9C767",
"{  c #F2CB64",
"}  c #EFD367",
"|  c #F1D269",
" . c #EACD74",
".. c #EDD476",
"X. c #F3D978",
"o. c #F2E679",
"O. c #327DB6",
"+. c #667DB9",
"@. c #277FCA",
"#. c #297DCF",
"$. c #3987A9",
"%. c #2D85BC",
"&. c #3987B7",
"*. c #51979B",
"=. c #609999",
"-. c #70A995",
";. c #498FAE",
":. c #5698A8",
">. c #4A97BA",
",. c #5599B8",
"<. c #6694B3",
"1. c #5DA2B4",
"2. c #69A5A8",
"3. c #75AAA9",
"4. c #78B8A5",
"5. c #67A4BA",
"6. c #75A9BA",
"7. c #78B6B4",
"8. c #1F86C4",
"9. c #2984C7",
"0. c #2681CD",
"q. c #2B85CC",
"w. c #2D8BCD",
"e. c #3385C4",
"r. c #338BC7",
"t. c #3B8AC6",
"y. c #3285CA",
"u. c #328CCB",
"i. c #3A8DCB",
"p. c #2D92CE",
"a. c #2E99CF",
"s. c #3592C6",
"d. c #3D93C7",
"f. c #3C9BC6",
"g. c #3593CB",
"h. c #3A95CB",
"j. c #339ACE",
"k. c #3C9BCA",
"l. c #2A84D1",
"z. c #2C8CD0",
"x. c #348BD1",
"c. c #398FD0",
"v. c #2D93D1",
"b. c #2E99D2",
"n. c #3395D1",
"m. c #329BD1",
"M. c #3B98D1",
"N. c #2FA0CF",
"B. c #33A1CE",
"V. c #34A4D2",
"C. c #36A9D6",
"Z. c #438CC5",
"A. c #438EC9",
"S. c #4B8CCD",
"D. c #4894C6",
"F. c #439AC6",
"G. c #4C9CC5",
"H. c #4395CA",
"J. c #4A95CA",
"K. c #439ACB",
"L. c #4B9BCB",
"P. c #579CC6",
"I. c #529CCA",
"U. c #459AD1",
"Y. c #649FC3",
"T. c #4CA1C8",
"R. c #56A3C5",
"E. c #5CA3C5",
"W. c #54A1CB",
"Q. c #5CA3CA",
"!. c #55A5D1",
"~. c #63A4C6",
"^. c #67A8C5",
"/. c #6CABC5",
"(. c #63A5CA",
"). c #64AACB",
"_. c #6CACC9",
"`. c #73ADC5",
"'. c #75AEC8",
"]. c #68B1C6",
"[. c #76B2C6",
"{. c #7BB3C5",
"}. c #75B1C9",
"|. c #7BB4CA",
" X c #9F9F91",
".X c #BA9A8B",
"XX c #8BB594",
"oX c #B6B28F",
"OX c #8FB9A8",
"+X c #8AB7B8",
"@X c #96BCBB",
"#X c #CFB18D",
"$X c #D2BCAA",
"%X c #98C59B",
"&X c #9BD39D",
"*X c #ABCD99",
"=X c #B6DC9A",
"-X c #B3E597",
";X c #8CC3AF",
":X c #99C7A6",
">X c #99D4A5",
",X c #9AC4BA",
"<X c #A4C8A9",
"1X c #BCC8A7",
"2X c #ABD7A9",
"3X c #BAD9AA",
"4X c #A9C9B9",
"5X c #B5CDBA",
"6X c #B9D5B9",
"7X c #B6E3A9",
"8X c #D3C692",
"9X c #EBD589",
"0X c #D1EE94",
"qX c #F3E584",
"wX c #CECEB3",
"eX c #C6D9BA",
"rX c #E5C8AD",
"tX c #C8E6A8",
"yX c #D3EAA9",
"uX c #D3EBB3",
"iX c #D7E7B8",
"pX c #E5EEB3",
"aX c #82B5C4",
"sX c #85BAC5",
"dX c #8CBCC5",
"fX c #85B9C8",
"gX c #92BEC4",
"hX c #96BCC5",
"jX c #83B8D0",
"kX c #94C2C5",
"lX c #9BC5C4",
"zX c #9CC7C6",
"xX c #91C4CD",
"cX c #A4CAC4",
"vX c #A5C8C7",
"bX c #ABCDC3",
"nX c #AED1C3",
"mX c #B4D3C3",
"MX c #BAD5C1",
"NX c #BDD9C2",
"BX c #B7D5CB",
"VX c #B1D5D6",
"CX c #B6DDE1",
"ZX c #B5E0E3",
"AX c #C5DDC2",
"SX c #C4D9C6",
"DX c #C8DFC2",
"FX c #D5D4CD",
"GX c #E4DAD1",
"HX c #CBE2C7",
"JX c #DAE8C7",
"KX c #CBE6D7",
"LX c #D8EBD7",
"PX c #E3EDC6",
"IX c #EBF1CD",
"UX c #C9E8E9",
/* pixels */
"G.P.<.<.+.+.<.P.G.K.k.k.k.k.k.k.k.k.k.k.k.k.k.k.k.k.k.k.k.k.k.k.k.k.k.k.k.k.k.k.k.k.k.k.k.k.k.k.k.k.k.k.k.k.k.k.k.k.k.k.k.k.k.k.k.k.k.k.k.k.",
"k.k.k.K.F.F.k.k.k.k.K.k.k.f.K.k.k.k.k.k.k.k.f.f.f.f.k.k.k.k.k.k.k.k.k.k.k.k.k.k.k.k.k.k.k.k.f.f.k.k.k.k.k.k.k.k.k.k.k.k.k.k.k.k.k.k.k.k.k.k.",
"k.k.k.k.k.k.k.k.k.k.k.k.k.k.k.k.k.k.k.k.k.k.k.k.k.k.k.f.F.H.k.f.f.m.M.k.k.k.k.k.k.k.k.k.k.k.k.k.k.k.k.k.k.k.k.k.k.k.k.k.k.k.k.k.k.f.f.f.f.f.",
"k.k.k.k.k.k.k.k.k.k.k.k.k.k.k.k.k.k.k.k.k.k.k.k.k.k.k.f.f.k.k.k.F.f.k.f.>.f.k.k.k.k.k.k.k.k.k.k.k.k.k.k.k.k.k.k.k.k.k.k.k.k.k.k.k.k.k.k.k.k.",
"k.k.f.f.k.k.k.k.k.k.k.k.k.k.k.k.k.k.k.k.k.k.k.k.k.k.k.f.f.k.f.F.D.>.f.m.k.k.k.k.k.k.k.k.k.k.k.k.k.k.k.k.k.k.k.k.k.k.k.k.k.k.k.k.k.k.k.k.k.f.",
"h.k.k.k.k.h.h.k.k.k.k.k.k.k.k.k.k.k.k.k.k.k.k.k.k.k.k.f.k.f.>.jXVXxX`.>.K.k.k.k.k.k.d.k.k.h.h.d.k.k.k.k.k.k.h.h.k.k.k.k.k.k.k.k.k.k.k.k.k.k.",
"h.h.h.h.h.h.h.h.k.h.h.h.h.h.h.h.h.h.h.h.k.h.k.k.k.k.k.H.K.>.xXUXgXxXUXgX>.F.k.k.F.F.F.k.k.k.k.k.k.k.h.h.h.h.h.h.h.h.h.h.k.k.k.k.h.h.h.h.k.k.",
"g.h.h.h.h.g.g.g.g.g.g.g.g.g.g.g.g.h.h.h.h.h.k.k.k.f.k.K.K.>.ZX@X>.,.hXCX,.K.F.F.F.R.E.G.f.k.d.d.h.h.h.h.h.g.g.g.g.g.g.h.h.k.k.h.s.g.s.g.k.k.",
"g.g.g.g.s.s.s.g.g.g.g.g.g.g.g.g.h.h.h.k.k.k.k.F.F.F.F.K.K.>.ZX+XG.G.,.CX^.K.G.G.jXUXUXCX1.F.F.U.M.h.h.h.h.h.g.g.g.g.g.g.h.k.k.s.g.g.g.s.h.k.",
"g.g.g.g.s.s.s.g.g.g.g.g.g.g.g.h.h.h.h.k.k.F.F.K.K.K.T.T.T.,.xXVX,.T.,.VX{.R.G.`.KX+X6.KXVXD.K.F.M.k.h.h.h.h.h.g.g.g.g.g.g.h.h.g.g.g.g.g.h.h.",
"g.g.g.g.g.s.s.g.g.g.g.g.g.h.h.h.h.h.d.d.F.F.F.K.L.L.T.T.R.R.5.VX@XE.,.cXzX5.5.VXdXP.,.gXCXG.J.>.F.k.k.h.h.h.h.h.g.g.g.g.g.h.h.h.g.g.g.g.h.d.",
"g.g.g.g.g.s.s.s.g.g.g.g.g.g.g.h.h.d.d.H.F.F.G.G.T.W.W.E.E.Q.~.6.cX+X5.4XKX6.,XVX5.!.5.BXcXG.L.F.U.K.h.h.h.h.g.g.g.g.g.g.g.h.h.h.g.g.g.g.h.h.",
"u.u.u.u.u.g.s.s.r.u.u.g.g.g.g.h.h.d.d.F.F.G.G.R.R.E.E.5.^.^./._.6.cXgX+XLXLXLX@X6.+XBXCX5.R.W.J.L.K.H.d.d.h.h.g.g.g.u.g.g.s.h.h.g.g.g.u.g.h.",
"u.u.u.u.u.u.g.g.g.u.u.g.g.g.h.h.d.F.F.G.L.W.Q.).).].`.`.`.`.[.[.{.+XSXnX@XBXbX+XBXLXBX6.^.Q.R.P.I.L.K.H.H.h.g.g.g.g.g.u.g.g.g.g.g.g.u.r.g.g.",
"r.r.r.u.u.u.u.u.u.u.u.g.g.h.h.d.H.F.G.I.Q.^._._.}.{.+X+X+X+XsXfXdX+XSXLX,X+X@XLXKXhX{.'./.^.Q.!.!.L.J.J.H.H.d.h.g.u.u.u.u.u.u.g.n.g.u.u.g.g.",
"u.u.u.u.u.u.u.u.u.u.u.g.g.h.d.H.H.F.G.Q._.[.}.|.aXlXKXLXLXHXmXcXzX4XLXJX6XHXeXIX5X+XfX|.[.`./.^.Q.W.L.J.H.H.d.h.h.u.u.u.u.u.u.u.u.g.u.u.u.g.",
"u.u.u.u.u.u.u.u.u.u.u.g.h.h.H.H.J.G.R.).}.|.|.sX,XLXLXAXSXHXLXPXPXIXIXeXJXeXHXeXJX6X4X,XlXhXaX`.(.Q.W.I.L.F.H.d.h.g.u.u.u.u.u.u.u.u.u.u.u.g.",
"w.w.w.w.w.w.u.u.u.u.u.g.h.d.H.J.G.R.(._.|.|.fXdXmXIX5X4XnX5X6XeXiXiXiXeXJXJXeX6XeXJXPXLXLXLXKXcX6.^.~.R.W.L.F.H.d.h.u.u.u.u.w.u.w.u.u.u.u.g.",
"w.w.w.w.r.r.r.r.r.r.u.h.d.H.F.I.I.E._.}.{.sXkXlXMXJX5XMXNXAXAXeXeXJXIXIXiXiXpXIXPXiX6XnX4X4X5XLXbX6.^.E.W.L.J.H.d.h.u.u.u.u.u.w.w.u.u.u.u.u.",
"w.w.w.w.w.w.w.w.u.u.h.d.H.H.J.I.E.~.[.{.sXkXlXcX5XJXHXeXeXeXwXoXY ( ( ( ( ( 8XpXIXIXJX6X5XcX,X4XLX+X'.^.E.W.I.J.H.h.h.i.u.u.u.u.u.w.u.u.u.u.",
"w.w.w.w.w.w.w.w.u.u.h.d.H.J.G.W.~./.{.sXkXzXcXmXSXeXPXPXoXn j R ^ ` ..[ [ ` [ Q W ( iXIXiXMXcX5XLX@X|./.^.Q.W.L.L.H.h.h.i.u.u.u.u.u.u.u.w.u.",
"w.w.q.q.w.w.w.u.u.u.h.d.H.G.I.Q.^.[.sXkXlXbXmXNXAXDXY h d J ^ {  .[ ` ` } } ` {  ._ R #XIXIXJXPXHX@XsX{._.).Q.I.L.H.H.h.g.i.u.u.u.u.u.u.w.w.",
"q.q.q.q.q.w.w.u.u.i.d.H.J.I.E.(./.[.dXlXcXmXNXDX6Xb a x W [  . .[ ` } ..X.| ` ` ^ [ ^ R U iXJXJX5XlXkXsX[._.(.W.J.H.H.d.i.i.c.x.u.u.u.q.w.u.",
"9.q.q.q.q.w.u.u.u.h.H.H.J.W.(._.[.aXkXcXmXNXHX1Xb p d J ~ [ [ ` [ ..qXqX9Xo.} { ` ^ ~ E G P eXSXmXcXkXdXjX}.~.Q.I.J.D.d.i.i.u.u.u.u.u.w.u.u.",
"q.9.9.9.q.q.u.i.i.d.H.J.I.Q.~.`.{.dXlXbXNXAXeXg i d R E Q [ ~ ` { X.qXo.qXo.| [ ^ ^ E E H j Y DXNXnXcXkXfX|./.~.P.J.H.d.t.i.i.y.q.q.9.w.x.q.",
"q.q.q.9.q.r.r.r.t.A.D.J.P.~./.[.sXkXcXmXAXHXI i i d D L ~ ^ ~ ` } X.qXqXqXo..._ ^ ) W H G x s 1XAXNXbXlXdXfX'.^.Q.I.H.H.i.i.i.u.q.q.9.q.w.w.",
"9.q.q.w.q.u.u.i.t.H.J.I.Q.~.`.aXdXlXbXNXDX1Xf f p x G T ) ~ ^ ` | X.qXqXqXqX..[ ^ Q W H D h s U AXAXmXcXkXdX|./.(.P.J.H.H.i.i.u.u.q.9.9.q.q.",
"q.c.q.9.q.y.i.i.i.D.J.P.~./.[.sXkXcXmXAXAX.Xa i a x H J L ~ ` ` } ..qXqXqXqX.._ ^ E E H G j a f eXDXNXnXzXgXaX'._.Q.I.J.D.A.i.i.u.u.q.q.q.9.",
"9.9.q.q.9.y.i.i.A.D.I.P.~.`.{.dXlXnXSXDXDXP a a d x G H L ^ ' { { | ..X.qXX.[ ^ E ! E H D j d p oXDXAXmXcXkXaX[./.Y.P.J.A.A.i.i.u.u.q.q.w.w.",
"9.9.9.0.9.y.i.i.H.J.I.E.^.'.sXkXcXmXAXDXAXh a d l x D H E ^ ` { { { | X.X.} ^ E ! E R D j j p p P DXDXNXbXlXdX{.`.Y.P.D.Z.t.i.i.u.u.q.q.w.x.",
"0.0.9.q.q.y.i.i.A.J.I.~./.{.dXlXbXNXDXDX1Xs d l l x D H J E ~ ' { {  . . .[ ^ E E R H D j d p i h DXAXAXmXcXhX+X`.^.P.D.D.Z.t.i.x.z.q.q.z.z.",
"@.9.9.q.q.u.i.i.H.J.P.~.`.aXgXcXmXAX<X-.I p l l D D F F J E ! ^ { [ [ [ [ ^ ^ ~ E H G D j p i p p A XXA <XbXlXdX{./.P.I.J.Z.t.i.x.l.q.q.w.q.",
"i.9.9.9.q.u.i.i.D.I.P.^.'.aXkXcXmXXXV 2 < 1 8 u s h S D H J E ~ ~ ~ ~ ~ E E E E E J H S p u u 8 1 2 B B %XbXlXdX{./.Q.I.J.A.Z.i.y.l.q.q.q.9.",
"J.r.@.9.9.r.r.d.J.I.P.^.[.sXkXbXMXZ B V V 6 < < 5 6 < < 1 7 1 9 7 1 7 1 1 9 7 9 1 5 9 2 5 C 5 C Z Z Z A 6XmXcXgXaX`.~.P.J.D.A.i.y.q.l.z.q.q.",
"J.H.@.@.q.r.t.H.J.I.P./.[.dXkXbXNX<XZ Z V 3 < Z C 2 < 6 C 9 2 Z 7 2 3 5 < + < < 6 C 6 1 9 5 @ 1 4 Z XXeXAXmXcXgXaX'.(.P.I.D.Z.t.y.q.q.z.q.q.",
"J.U.y.@.l.y.i.H.J.I.Q./.{.dX,XbXSX6XZ Z 2 + 4 5 + < < @ 9 2 2 @ 1 O X . . + 2 6 Z @ % = * % = w t 6XAXAXAXmXcXgXaX'.^.P.I.D.Z.t.y.q.l.z.q.q.",
"J.U.y.9.l.y.t.A.J.I.~./.7.:XeXeXeXeXXXXXI % * @ O % = w e = = $ % = = O + + 4 4 - % w e v v e e m DXDXDXAXmXcXgXaX'.^.P.I.D.A.t.y.q.l.z.q.q.",
"L.U.9.#.9.e.t.A.J.I.E.6.<XyXyXpXpXeXeXFXwXN m y t r r v N N .Xm g t = % $ $ % % = = w y m m m U $XFXDXAXAXMXcXgXaX`./.P.I.D.A.t.e.y.w.z.q.9.",
"U.x.@.@.9.u.u.A.D.I.W.6.3XtX4X3XpXiXeX1X$XFXwXwXwXGXGXGXGXGXwX$X.Xm q 9 B V V 9 V V 6 I wXGXGXGXGXGXwXAXAXmXcXkXaX`./.P.I.H.i.r.e.r.w.u.y.y.",
"x.@.0.9.%.&.&.>.H.I.R.5.3X4X,X4XuXiXeX$Xn n m .X#X#X$XwX$X#X/ M h @ 6 2 B 5 B 6 Z 6 @ f M #XrXrX$X#X$XAXAXmXcXgXaX'.^.P.I.H.i.i.e.e.u.u.q.y.",
"@.9.9.&.2.;X:X3.,.I.E.5.2X<X,X4XpXiX( z : X   * k K K K ! ! ^ ! K R 8 @ + . + . . O * : r p c / rX_ _ eXAXmXcXgXaX`._.Q.I.D.h.i.t.t.i.y.9.w.",
"0.8.O.4.2X%X%X2X:X,.E.5.<X2X@X6XpX( c :   o o X X r c _ K ! K c z u O                     X O : f M rXrXSXnXzXdX{.`.(.Q.I.D.A.i.i.i.r.9.w.w.",
"#.9.;.7X=.$.$.*.:X:X2.5.:X3XOXtXuXwXwXq X , * , ; X * z / R h : $ X o X o $ * & 0 > o ; , , ; X   - z n 6XbXkXdX[./.(.W.I.D.A.i.i.u.w.w.w.w.",
"#.@.:.-X*.e.Z.t.:.:X6XXX=XtX<XuX3X6XeX X  $ o $ * o   * i - & & ; , * ; * : * , .X0 o & ; o o X   # eXeXmXcXkXfX}._.Q.I.L.J.A.i.i.x.w.w.w.u.",
"0.0.&.>XXX$.%.t.Z.:.%XtXtX<X:XuXtXeXiXpXq X X   X X X     X X o o o o o $ o o X X o o   X X   X -  XDXSXmXcXdX|.'.).W.I.J.H.A.t.u.x.w.w.u.r.",
"9.@.y.*.>X>X4.2.1.1.=.XX3.3.:X3XuXiXiXuX1Xh n g b 0 , - @ > O X o O O             O 0 0 0 0 b n f oXAXMXcXlXdX{./.(.R.I.D.Z.t.t.u.u.w.w.u.u.",
"#.9.#.&.$.:.3.3.6.7.>X3X:XOX3X3X<X2XyXpX8Xj D G D T ) 9X9X9X9X8X9X9XpX8XU P ( ( ( ( ( T S j h s p 1XNXnXcXgXaX`./.~.P.J.D.Z.t.i.u.u.w.w.g.g.",
"0.@.0.0.q.e.%.e.&.;.:.*X=X%X%X2X<XyXpXpXyXj x D G H E W Q Q Q Q ^ [ [ [  . .[ ) E E T T T S j h h 6XmXcXkXdX{.`.~.P.G.D.D.t.i.u.i.u.w.w.w.p.",
"0.@.@.@.e.e.r.y.x.S.S.%X0XXX:X:X%X0XyX3X5XoXP S S T W Q Q ^ ^ Q [  . . .9XqX[ ] ) ) W T T S h h .XmXcXkXgXaX}._.Q.I.G.J.A.d.h.g.u.u.w.w.p.p.",
"0.@.@.#.l.9.q.y.e.&.=.=X=X-.%X%XOXyX0X<XcXnXmXeXwXoXY P T R W Q Q ) [  .X.qX) ) W W U U Y oX1X6XmXcXlXdXfX}._.(.R.I.L.H.H.h.g.g.g.w.u.w.g.g.",
"0.0.0.0.9.%.y.%.;.4.=X=X-.*X0X0X:XOXyX2X,XcXbXmXNXAXAXDXeXwXwX1X1XoXoX1XwXwXwXwXwXeXAXAXAXNXMXbXcXlXgXfX|._.).Q.W.L.F.H.d.h.i.g.g.p.g.g.u.r.",
"0.0.0.0.@.@.;.4.>X>X-.:.=.2XXX=X=X3.<XtX<X@XlXcXbXmXMXNXAXAXAXAXHXHXAXeXAXAXDXDXAXAXSXNXmXnXcXzXkXdXfX[.}.).Q.W.L.J.H.d.d.d.i.u.u.g.g.g.g.s.",
"@.0.0.0.@.:.&X&X=.;.&.&.+X2.>.3.=X3.6.<XtX:XdXhXlXcXcXbXmXmXMXNXAXAXAXSXSXNXNXMXmXmXnXbXcXzXlXkXsXaX}._._.(.W.I.J.F.d.d.h.h.h.u.u.g.g.g.g.g.",
"@.0.0.0.$.*X&X$.%.9.z.;.;X>.F.:.2X+XY.3.2X3X+XfXdXgXkXlXlXcXcXnXmXmXmXmXnXbXbXcXcXcXlXlXkXdXdXaX[.`./.).Q.W.I.J.F.K.h.g.g.s.s.s.g.g.s.s.s.s.",
"@.@.0.0.*.-X-.%.%.q.y.7.7.Z.Z.>.3.2X2.1.OXtX:X{.{.aXfXfXdXgXkXzXzXcXcXcXzXlXkXkXkXkXdXdXfX|.{.[./.^.~.E.P.I.L.K.K.k.h.g.g.g.g.g.g.g.s.g.s.j.",
"0.l.0.0.*.-X-.O.9.O.:.>X*.&.A.A.;.>X=XXXOXtX+X/./.'.}.[.|.aXsXgXdXgXgXkXxXdXsXsXsX{.|.|.}.}._._.).Q.Q.W.L.L.K.K.k.k.g.g.g.g.g.g.g.g.g.g.s.j.",
"0.0.0.q.O.4.>X-.*.-.,X1.&.r.i.i.Z.:.<X7X6XOX5.~.(.(._././.'.[.|.|.aXfXfX|.{.}.[.}.}._._._.).).Q.Q.W.W.L.L.K.K.k.M.n.g.g.g.g.g.g.a.g.g.g.s.j.",
"l.0.q.q.0.$.2.OX4.2.;.e.u.x.r.u.i.A.;.:.:.,.G.I.P.P.Q.~.(.(._._.}.}.}.}._._._.).).).(.).Q.Q.W.W.W.L.L.K.K.k.k.j.j.n.n.n.m.g.g.s.a.a.j.g.j.n.",
"l.l.l.0.l.9.9.e.%.9.q.w.q.z.u.x.x.c.i.d.H.H.H.J.J.I.I.P.I.W.P.Q.(.).).(.Q.Q.Q.Q.Q.Q.W.W.W.W.L.L.U.U.U.U.k.k.j.j.j.m.m.m.j.g.g.g.b.b.a.j.j.m.",
"l.l.0.l.l.l.l.0.l.l.l.l.l.q.l.u.u.u.x.c.c.h.H.H.H.H.J.L.L.I.I.I.I.W.W.W.W.W.W.W.I.L.L.L.L.K.K.U.U.U.M.M.M.g.j.j.m.m.m.m.g.g.g.j.b.b.j.j.j.m.",
"q.q.q.q.q.0.0.0.l.l.l.l.l.q.q.q.q.u.x.x.x.i.h.h.h.H.H.H.H.H.K.K.F.L.L.L.L.L.L.L.K.K.K.K.K.K.K.M.M.M.M.M.M.g.n.m.m.m.m.m.g.g.g.j.b.a.j.j.k.B.",
"q.q.l.w.q.q.q.q.q.l.l.l.q.q.q.q.q.w.u.u.u.u.u.u.i.g.g.h.h.h.h.h.h.H.H.K.H.K.h.h.k.M.h.k.k.k.h.h.n.n.n.n.n.m.m.m.m.m.m.m.m.g.g.j.a.j.j.k.k.B.",
"w.w.w.w.w.w.w.w.w.w.l.q.q.q.w.w.w.w.w.w.w.u.u.u.u.u.n.n.n.g.g.g.g.g.g.M.M.h.h.h.M.M.M.M.h.h.g.g.n.m.m.m.m.m.j.a.j.m.m.m.m.j.k.j.j.j.k.k.k.B.",
"w.w.w.w.w.w.w.w.w.w.w.w.w.w.w.w.z.w.w.z.z.z.w.w.w.u.n.n.n.g.n.g.g.g.n.n.n.M.n.n.M.M.n.M.n.M.M.m.m.m.m.m.m.n.b.a.a.m.m.m.m.j.k.k.k.k.k.k.k.B.",
"l.l.l.w.w.w.w.w.w.w.w.w.w.w.w.w.u.z.w.z.w.w.w.z.z.z.w.w.w.v.v.p.w.w.p.v.p.p.p.p.p.p.v.b.b.b.b.b.a.b.b.b.m.m.m.b.m.m.m.m.m.m.j.k.k.k.k.j.B.B.",
"l.l.l.w.w.w.z.w.l.w.w.w.w.w.w.w.w.w.w.w.w.w.w.z.z.z.z.z.z.v.v.v.z.v.v.v.v.v.v.v.v.v.v.v.b.b.b.b.b.b.b.b.m.m.m.m.m.m.m.m.V.V.j.j.k.k.B.B.B.V.",
"l.w.w.w.z.w.z.w.l.w.w.w.w.w.w.w.w.w.w.z.w.w.w.w.z.w.z.z.z.v.v.v.p.p.v.v.v.v.v.v.v.b.b.b.b.b.b.m.b.m.m.m.m.m.m.m.m.m.m.m.V.V.B.B.B.B.V.V.V.V.",
"z.z.z.z.z.z.z.z.z.z.w.w.w.w.w.w.w.w.w.z.w.w.w.w.w.w.p.p.p.p.p.p.p.p.p.p.a.p.p.b.b.b.b.b.b.b.b.a.j.m.m.m.m.m.m.m.m.m.m.m.N.B.B.B.B.V.V.V.V.V.",
"v.v.v.v.v.v.v.v.v.v.v.v.v.v.v.p.p.p.v.v.v.v.v.v.v.v.v.v.v.v.v.v.a.a.b.b.b.b.a.b.b.b.m.m.m.m.m.j.j.m.m.m.m.m.m.m.m.m.m.V.V.V.V.V.V.V.V.V.V.V.",
"v.v.v.v.v.v.v.v.v.v.v.v.v.v.n.v.n.n.n.v.b.n.b.b.n.n.n.n.b.v.b.v.b.b.b.b.b.m.m.m.m.m.m.m.m.m.m.m.V.m.V.V.V.V.V.V.V.V.V.V.C.V.V.C.C.C.C.C.C.C."
};
