/* XPM */
static char *gray_gravel_texture__1_1714578488[] = {
/* columns rows colors chars-per-pixel */
"70 70 213 2 ",
"   c #4D4E40",
".  c #5F5A56",
"X  c #64634F",
"o  c #626453",
"O  c #696456",
"+  c #606058",
"@  c #69675A",
"#  c #676A5F",
"$  c #6A6C5C",
"%  c #6A6955",
"&  c #716B58",
"*  c #6D7257",
"=  c #78715D",
"-  c #75735E",
";  c #666662",
":  c #6C6C63",
">  c #676D6D",
",  c #716F61",
"<  c #6D7363",
"1  c #677168",
"2  c #6D726B",
"3  c #747464",
"4  c #7A7563",
"5  c #7C7B65",
"6  c #73756B",
"7  c #79766A",
"8  c #767A6D",
"9  c #7B7B6C",
"0  c #6C7472",
"q  c #687A77",
"w  c #747673",
"e  c #767C73",
"r  c #7C7D73",
"t  c #797778",
"y  c #737E7C",
"u  c #7C7E7A",
"i  c #7A7474",
"p  c #817A5E",
"a  c #837C64",
"s  c #827E6C",
"d  c #88786A",
"f  c #827E72",
"g  c #837F7A",
"h  c #897F75",
"j  c #7E8166",
"k  c #7F826E",
"l  c #7D8174",
"z  c #7F8877",
"x  c #77807A",
"c  c #7D827B",
"v  c #7D8879",
"b  c #868165",
"n  c #83826C",
"m  c #8A836E",
"M  c #8A8A6E",
"N  c #92836E",
"B  c #908A6E",
"V  c #928467",
"C  c #838374",
"Z  c #8A8573",
"A  c #858975",
"S  c #8C8B76",
"D  c #84857B",
"F  c #89857A",
"G  c #85897C",
"H  c #8C8B7C",
"J  c #928C75",
"K  c #998D75",
"L  c #928D7C",
"P  c #988A7C",
"I  c #928773",
"U  c #87907F",
"Y  c #8E917D",
"T  c #949176",
"R  c #9A9077",
"E  c #94927D",
"W  c #9A937D",
"Q  c #979879",
"!  c #9C987D",
"~  c #A49573",
"^  c #A2957A",
"/  c #A29A7B",
"(  c #AA9A7F",
")  c #747984",
"_  c #748382",
"`  c #7D8481",
"'  c #7D8983",
"]  c #838681",
"[  c #888681",
"{  c #858B83",
"}  c #8B8C83",
"|  c #858B8B",
" . c #8C8D8A",
".. c #85868A",
"X. c #928E83",
"o. c #988F80",
"O. c #918E8A",
"+. c #879186",
"@. c #8D9183",
"#. c #87928C",
"$. c #8D938B",
"%. c #8D998D",
"&. c #939384",
"*. c #9A9584",
"=. c #969985",
"-. c #9B9A85",
";. c #94958A",
":. c #99968B",
">. c #959A8C",
",. c #9B9B8C",
"<. c #8B9491",
"1. c #8D9995",
"2. c #8B959A",
"3. c #869794",
"4. c #929492",
"5. c #999691",
"6. c #959B93",
"7. c #9C9D92",
"8. c #969D9C",
"9. c #9C9E99",
"0. c #A19686",
"q. c #A29C85",
"w. c #AB9C84",
"e. c #A29D8C",
"r. c #A99D8D",
"t. c #B19E80",
"y. c #A29E92",
"u. c #A19D9B",
"i. c #AD9F96",
"p. c #9DA18D",
"a. c #98A188",
"s. c #93A194",
"d. c #9DA194",
"f. c #9EA890",
"g. c #96A29B",
"h. c #9DA39A",
"j. c #9CAD9D",
"k. c #A3A185",
"l. c #A3A28D",
"z. c #AAA48D",
"x. c #ABAA8D",
"c. c #A9A081",
"v. c #B1A48B",
"b. c #B2AB8F",
"n. c #B0A287",
"m. c #BBB18E",
"M. c #A3A394",
"N. c #AAA594",
"B. c #A5A995",
"V. c #ABAA95",
"C. c #A4A59B",
"Z. c #A9A699",
"A. c #A6A99B",
"S. c #ABAB9C",
"D. c #B3A692",
"F. c #B3AC95",
"G. c #B9AE95",
"H. c #B2AD9B",
"J. c #ADB09D",
"K. c #ACB097",
"L. c #B1B195",
"P. c #B4B29D",
"I. c #B9B39C",
"U. c #BBB89C",
"Y. c #889DA0",
"T. c #9A9EA1",
"R. c #95A3A5",
"E. c #9BA4A1",
"W. c #9EA9A4",
"Q. c #9DA8AA",
"!. c #A4A6A2",
"~. c #AAA7A0",
"^. c #A5ABA3",
"/. c #ABACA3",
"(. c #A3AAAA",
"). c #AAADAA",
"_. c #B2AEA2",
"`. c #B6AFA9",
"'. c #A5B1A2",
"]. c #ADB1A3",
"[. c #A7B2AD",
"{. c #ACB3AB",
"}. c #AEB8AF",
"|. c #B3B3A4",
" X c #B9B5A4",
".X c #B5B9A4",
"XX c #BBBAA5",
"oX c #B4B4AA",
"OX c #B9B6A9",
"+X c #B6B9AB",
"@X c #BBBBAB",
"#X c #ACB2B1",
"$X c #A9B8B3",
"%X c #B4B5B2",
"&X c #B4BBB2",
"*X c #BCBCB2",
"=X c #B9BEBA",
"-X c #C1BCA5",
";X c #C2BDAC",
":X c #C5B6A8",
">X c #C1BEB3",
",X c #BDC0B0",
"<X c #BDC2BA",
"1X c #C3C1AD",
"2X c #C7C5AC",
"3X c #C3C3B4",
"4X c #CAC7B4",
"5X c #C5C8B7",
"6X c #CBC8B3",
"7X c #CCCBBC",
"8X c #C2C5BA",
"9X c #D1CFC2",
"0X c #CED0C2",
/* pixels */
">.V.S &.C L l.&.E.~.M.A.8X;.l.q.M S.C.] C W 7.d.,.B.&.H I.H.&.&.M.,.Z M.&.5.,.-.>.:.@.p.|.&.>.C &.H } r G A.r >.:.N.M.|.oX&.G M.W G >.E >.h.",
"XXy./.l.W ;.l J.h.z M.>.;.5XP.G.p.=.G F S S.6 <.n M.9 @X XW *.&.S.|.F &.A.C.].A.A.A.S.S.,.,.M.,.$ &.S.A.;.7.A ;.C F A.>.S.,.G S.N.S.E l.B.,.",
"L.@X:.,.&.G |.XXd.l ;.d.B.} N.S a.D -.N.G.z.>.1.e.H + &.:.*.V.l.J.@.$.oXB.a.>.>.B.C.l.l.XXP.&.d.l.H H.d.M.,.H ].&.8 ;.d.F r :.L &.k.e.:.- l.",
"b x.V.;.].d.I.OX=X!.c ;.5.} 9 e.$.5.y.-.z.b.H.A.k.M././.} V.N.Z @.=.y.&.8XM.H &.;.G ,.L.W H ,.5.N.9 >.9 ].;..XS.9 &./.F C } &.&.&.N.N.Z.x.L ",
"k.V..X*X~.=.E M.+.G @.;.,.,.@XM.&./.7X|.@XV.XXE I -.;.A.{.-.*.L C q.W &.d.:.:.W D 7.].S.S.$./.8.l.9 9 G 5./.OXC.7.7.C H S.;.J.l G 5Xp.A.=.&.",
"! N.@.M.M.} H l.S E A.-.E a.x.A x.V.L ].>.~.M.:.q.C } oXM.S.m S.9 6XU.F.M.A.&.R |.>XM.F M.>.oXh.H.A.} 7.<X^.D 7.C.D >._.,.oX+X&.H M.>.h.C 7.",
"k S.@XXXV.r |.S.=.A =.M.z.I.K.A.J.-.W V.r ].C.%XN.9 G >.9 ,.M.A *.*.J P.C S.p.XX! P.M.P.M.|.C.y.l.&.p.7.h.A.~._.6 G r .X].B.d.].G.y.A.@.6.;.",
"~.S.V.S.A.V.M.5.M.>.h.C.H.P.&.A.] |.-XJ V.s.{ 1 |.;.;.r L -.5 r l.H.Z.N.{.@.H @Xn.v.I.e.S.M.*.Z E N.,.>.A.C oXA 5.} G 7.+XA.].S.q.h 1XA.{ 2 ",
"J.{./.].A.C.9 -.C.A.A.N.,.,XE A @.>.p.l.l.l.e.Z >.>.6 d.D _.X.V.V.-.I.M.C.-.-.].,.H I.q.Z @X7.{ V.XXh S.A M.-.&.).r.g.g.x.XX@.p.S.>.M.>.XXN.",
"E -.z.l.+.'.h.7.l.O..XV.:.|.l.B.z.z.N.M.&.A.=.=.8 G ;.A 7 *.e.J S.l.Z X.7.M.;.$.7.M.,.S -.E H 7.0.q.L z.H &.M.&.B.A.l #.T *.{ d.&.C A.S.@Xe.",
"2Xz.J x.Y >.7.M.M.3 &.H.9 @XB.} F.P.e.C.@XJ.l.U.;.S.,.x.N.! e.4 $ 3XV.C.h.8 5.<XM.e.S H.L s ,.S.*.z.*.*.,.M e.I V.l B.<.7.z.1.$.A.,.M.,.&.9X",
"|.A.&.-.M.S.G.v.T *.q.l.:.+Xn 5.oXD } A.Z.l.k.B X.XXP z.-XI.H.Z &.S.>.7.;.A H oX@XH.7XV.l.Z z.V.|.XXH S.E =. X*.l.@.&.6./.A.l ].|.@X;XC &.C.",
"d.$.S.Y S.A n a K M.5 N.7.L H OX{ %.f.=.;.M.F D 7 Z.S.F.B.-.-.r H.k.@X;.M.N.n H.} &.-.,.-.J N. X>.B.C >.A r G 7 _.&.} Z |.@.k.B.Z H -.*.} >.",
"&.1X.XA {.6.7.d.I e.P.J ,.X.L F &.,.M.-.B.{ 0 2.F S.A &.,.F d.M.q.P.&.;.A.V.! F.C.A.:.S.|.W N.H.$.,.&.9 Y oX/.H >.i.} q.@.]./ H >.$ C OX_.,.",
"S N.N.|.>.C.oX} ! Z..Xe.y.-.-.V.,.M.V.&.].{.[.E.s l.M.;X,.&.|.*.e.e.&.OX*X&.;XV.:.G M.l.l.*.-.&.l *.H X.A N.s S.r  .*.-.6.>.m &.G C ;.X.y.Z.",
"B.Y *.S.9 M.N.G.S.@XL E >.N.! W c 8 >. .F A.V.-.S.1X;Xe.e.e.*.e.y.7 >.{ C.|.I.:.H >.,.M.7XL *. X*.Z 0.N.5 N.*.M.G ' ! &.W.oXu ^.} r M.,.M.,.",
"7.{.7.D _.A.F 9 +X: ; } c.c.].9.*.M.S.A.A.S.A.`.A.C.M.@X|.&.E /.H.-.&.l } P.*.! a -.V.S.&.H l.V.m.:.G I.&.8 6.} G 5.>.=.,.|.&.v p.;.{.&.W A.",
"F.V.d.A.d.7.3XM.d 6.j.M.e.N.I j.M.&.f &.|.:.d.M.d.A X.-.N. X0.*.X.M.l.N.l.H.&.:.&.;XF.l.;.;.|.F.Z W q.E F >.6 $. .@X!.{.D.P D E >.5.@.A H &.",
"D.N.V.e.@.A.{ D N A.<X>.;.N.N.g.;X7X>.|.+Xe.M.X.G G V.A.q.F.N.W *.N.Z.M.P.S.-.! H.V.&.L OX@XM.H r z.p d.;.M.>.l e E.^.;.l.z.q.F >.M.G &.d.=.",
"B.C 4 *._.} <.s.! D.C.).&.,.+.C.>.&.|.&.&. X&.M.;.>.&.l.A a  X XN.M.:.Z. Xl.e.w.N.H.G o p.F ,.A./.-.X.&.S.E N.} =.E.[.7 @.V.B 5.*.-.|.;.;.V.",
"$.D X.y.Z.O.} l r.N z.l G <.{ M.} F G &.C M.-.M.M.3 X.F 7.C l ].>.&.L H z.-. XX.x.M.g } E E A 7.V.;.4.&.J -.;.y.l.*.[ E.% A h.&.4 H.z.&.>.5 ",
"] ..>X9.7.F F N.:Xe.-.B.2 M./.*XC.:.>.A./.,.&.3 &.XX&.V.M.G @.6.M.} l.e.l.4Xy.H S.&. ./.+XN.B./.Z.;.9 R r.9.6.I e.l.r 5.{  .].y.Z.*.3 ,.N.e.",
"F f C.{ c M.:.F.U.,.@X&.;..XV.$.S.A.>.M.M.A.B.>.OXH N.e.6XS.l.&.S.>.9 ,.N.;.A.-.;..XC >.d.D d.V.7.@.-.l.N.g r M.-.h.&.*.Q.(.& -.A.M.D C.7.A.",
"l.S.~.D 7 M.,.,.$.z.z.k.S.@.^.W N.M.X.A.A.;.;.7.|.9 H.q.z.q.G.I D } 7 E l.>.S.u D M.Y S. .w M.l.G W F y.7 m  XO.5.&.H 2 6.D X.~ h.!.<.>.G 9.",
"E %.+.C.3.G -.s.:.-Xz.-.L.A C.S.=.&.5.x ,.S.} } @X1X-.-.V.*.;XE K ~.N.J :.:.@.Y.B.S.d.7.S.X.y.S.W.:.q.M.=.F.l.&.S.oX5.A F H @.a. .S.p.F L z.",
">.$.G d.s.=.,.c !.A.H H l.=.Z.XXM.$.;.,.g.A.V.;.l.l.-.S XXM.-.K L OXF.z.C.@.q.e._.C.O.n &.M./ I.|.;.H =  X>.M.*.A ].5 b -.,.[ y.E B.].>.;.M.",
"<.*Xg.$.l.p.+.`.C.>.} } N.V.M.N.r H.&.&.5.$.,.F.7.} >.&.:.y.C.>XL S.F.*.^..Xv.w.1XZ.M.-.h L 2XI.I H _.= S h.c A H D H -.! 7.O. .W 5.t r A.E.",
"%X:.C.%.l.S.$.oXJ.p.!.C.=.-.d.d. .-.-.>.e $.9.d 5 F F &.X.M.y.A.B.%.;.W -Xm.0.u z.q.E 3XF.A y.-.E V.n F r ,.-.C ,.D 7.e.3 G XXJ } : G M.k >.",
".XG.G <XM.~.y >.W =.5.!.M.@.$.}.C.^.F.s q 6.e.>X>.,.&.C C Y C.9 &.C.G F.G.! H.1.&.q.-.,.H.:.7.@.f.S.s } h.E P e.S.F ;.e.f X.e.W D .XA S.l.l.",
"=.k _.O.Z.;.C.M.V.1X&.&.p.oX!.g.>.F P.*.>.h.:.F.t O.C.~.;.>.oX+Xz.:.q.V.` g. X/.y.y.y.XX,.A.l.&.&.l 7.Z.-.@.-.z.N.Z &.x.A G | 5.$.,Xd.9.9.E ",
"P.>.e.L &..XS.} 7.V.M.@X=.;.h.7.C.*.A.f P C { E |.C e.-.e.E 1XH.F.M.L Z ].G J -.M./.-.S.e.l.*.! N.>.} q.H @.C r.B = |.L.Z }  .| 5 S -.A y.e.",
"OX).&.! l.L.W w T.C.,.M.V.&.5.E V.OX*XL S.*.I.h.e C ;.N.N.N.S.y.= 2 I z.F.w.K d.N.b.L e.W *.X.H.Z w.Z G G 9 y.C.G.q.L N.A.>.7.n &.y.&.p.V.C.",
"5 J oXq q 7.z.l.I.M.F C.F n X.C y :.e.G.,.6 O.*.5.c g.].0.F.l.%.H >.&.*.N.e.z.P.~.M.7.V.} -.H.q.e.S >.C.^.D y.N.b.s Z >.9 ^.C.Z &.7.A.6.>.@.",
"S.e.OX_ y A.F.S.H C.C.{ A.A.&.5.D &.D.o.>.e Z E C.C.&XOXW :.A.%.O.y.:.H Z._.M.f y.V.d.A [ -.S.-.f -.k >.{.;.H |.e.s p.C.C.M.F X.;.@./.M.B.-.",
"Z.:.F 4.e M.y.&.p.S.$.c { h.|.M.:.O.7 Z.F C >.M.:.l OXM.F |.].l P.H N.P.M l.z.J F V.|.A A.:.@ a e.>.r G >.;.^.4 . :.-.V.A.H &.u } >.c >.D M.",
"A M.L X.e C &.M.M.;.h.1.j.oX&.L G.H.y.S.M.-.M.A.6 s *.C u 4.>.M.C.F S.e.&.l.:.y.y.C A F :.;.A.$ 7 9 Y >.G >.-.Z O.:.>.-.W y.H H d.OX6 2 #.[.",
"&.M.S.L 4 ;.A.>.F 7.C $.7.d.y.P.E &.;.C.M.r.F. XA L V.y.+.&X].H :.y.:.&.N.-.s :.y.M.E &.+X5.S.,.N.H -.M.;.:.F.R H M.>X,.>.OXM.S *.S H e 6.W.",
"I M.oXF.S C ,.,.,.p.C C r Z.*.G.B.=.,.OX,.H.0.q./..XZ.H.{ l +.>.H.X n V.!  X=.V.P Z.V.7.E &.-.M.l.} 7 V.Z X.h a ,.,.:.[ &.:.J I N.A Z &.-.-.",
"e.>.>.W V.;.].5 @.h.&.H Z._.Z.q.Z.F.l.Z A.M.OXz.M.7.:.C.V.,.F 5.O.F Z e. X,.y.oXe.|.q.:.S &.e.Z 4.} d.c F C.J 4 ,.V.L H :.I !  XA @.s &.XXy.",
"r.7.@.&..X] <.M.y >.@Xl.&.F &.N.O.P w.W ,.A.:.K /.9.D 7.&.A OXoXA.*.E E P.l.&._.H.X.-.y.V.r q.e.$.] { l C.D 7.E E |.V.n k.*.,.e.H ].S.5.{ 6 ",
"b.C.A.N.X.D >.,.G >.:.H l.:.>.,.i P C d.*.;.!.N.&.f &.O.X.L S.M.;.N.F.D.N.~.@.=.l.&./.M.q.&.G N.q.A ;.;.X.E w.t.L *.! z._.s X.F ,.7.>.:.*.N ",
"M.&.e.9 7.+XA./.M.&.V.I F.N.@XA.9.:.o.y.>Xe.A a.&.Z.C.y.y.|.-.V.&.y.q.q.q.s e ' ,.B.6.;.S.} j.H.;.C N.N.s X.,.5 :.M.4Xe.X 3 y.&.A M.C.&.y.>.",
"c H.:.y A.L &.h.&.X.e.-.XXN.Z.C :.L Z L 7.r e.X.G 3 /..Xe.H  X&.Z.e.! q.x.-.;.T.! z.C.O N e.F.~ e.C ; C.Z. X& *.,.p.W 6 o - A.n |.|.l { C.+.",
"4.>.C { B.S.7.r M.H f :.OX X9 &.K O.-.e.G @XD.r M.>.;.Z.A.} -.,.O.:.X.N.W M.: 4.*.&.9.}  Xd.{ *.-.S A.6.8.+Xe.L } - &.H B.D &.-.&.;.# c  .1.",
"5.d.7.:.M &. .Z S.G H  X-.-.&.N.Y ;.;XD.: M.q.8 9 D D 7.} _.G C / *.g g H.S.F >.H @X7.XXG.{ R.0 C.7.} s :.oX7.M.@.C S.L +.*XY A 7.>.C.] 2 ;.",
"&.d.e Z ! ;.7.b.d.D M.G A :.:.9 s y.g *.y.:.e.;.C.O.D G } H ;.@.P N.F D :.,.V.*.Z.H.&.-./ B.1.} V.>.5.&X.XM.d.6 ;.oXS.5 >._.Z :.A &.} ;.u ;.",
";.D 6 k G ;.l.e.;.} A.>.9   >.|.N.N.D { XX-.y.X._.:.,.N.:.>.oX7 C.H } oX*XF e.l.9.d.1.C.W D x  .y.:.;.!.R. .V.J G M.E -.C /.F >.&.B.} e ;.G ",
"'.@.&./.| f n G M././.>.} 6 /.C.,.V.5.;.F.:.C.F e.e.L >.-.*.&.=.^.C.-.* M._.e.S %./.A.,.( *.k V :.7.{ ;.&.@.d.>. .>.&.p.=.9 } &.L M.M.>.D h.",
"M.l.H M.:.&.y.Z >.W q.*.d.#.1.>.A ;.:.Z s |.9Xe.>.y.N.*.h Z.r +.G.1X/ a 9 (. .L y.Z.&.S q. XM.7.H.* D ,.l.F =.>. .c E C :.-. .9.$.p.V.H :.D.",
"r ,.p.+XA.O.H.e.:._.H.-.;.D >.H G A.A.g X.S.S >.N.Z *.A.;.>.d.e.,.R ( XX} &.V.z.;.@.M.E L L S.>.:.O.6.>.5.7.B.c >.@.A -.4 3 $.< S B.-.-.-.k.",
";.8 H >.>.:.P.T q.q.l.H :.y.7.| ^.J.>.: } B.-.;.0.9 7.y y !.P.N M.4 -. X,.G.D.W &.>.d.&.OX,.B.S.:.A.h.] H M.!.D $.XXG f ;.$.5 e ,.M.S e.XXH.",
"/.C M.=.s 4X&.! 0.:.C.;.S -.>.g.7.r O.-.-.&.3XV.N.F r ).6.u y.R 0.D  .P.l.V.y.r.G &.7.C.Z.O.|.&.L F =.+XB.E M.E F H g.@X>.4.;.9.7.$.} 7.y.7.",
"} S.A ;.d.>.7.O.;.+XE.>.L |.B.8.C } _.W 7 N.>XF./.M.M.C ,.C ,.-.z.[ 4.;.=.f.A.`.,.7.>.r O._.|.>.L F a d.;.p. XI 5 J.&.d.+.Y G p.d.d.C.$.>.G ",
"H P.>.} A &.y u l @.*X} C &.6.> [ *.R I X.XXe.-.9.,.M.&.&.H k ,.e.N.;.' 5.*./.#Xf ;.G C &.;X&.d./.:.e O.;.&X4.L Z l F.>.].S.$.K.h.,.@.M.|.M.",
"V.H } d.oXd.+.#.x ;..Xe.,.XX*.,.] N.x.H.F F f y.*XG &.M.>.;.,.&.*XM.G u u.*.@ e f A.,.].M.M.,.+X_.).:.M.| #XA :.3XoXM._.|.3Xh.{ S.-.A |.&.7.",
",.;.5.;.>.>.+.<.1.} z.e.e.M.N.0.g O.e.D.>.(.h.p.:.X.d.d.7.x &. XS.d.G n o._.r V.9.G p.=.H..XC.;.&.l.f C.>.3.l -.7.-.&.q.P.h.l.^.} 7.>.+ [ 7.",
"*.{ c 2 { F ;.M.H.q.L -.q.e  .q ) $.e 6 E.!.c p.e..Xa.@.S.3 -.H.} *.Z >.>.*.H.$XN.] g.w.C.S. .;.h.+.@.,.S.7 s - P.k.} |.,./.n @X:.= :.S % e.",
",.C  .8 9 9.L ;.B.V.N.N.6X^.: $.@.>.p.>.{ Q.<.C.5.$.A.>.$.[ >.N.|.f y.e.M A A.,.H &.d.M.~.B.$.-.D 7.>.G f S.&.-.oXH.: 7.@.c A.l H C A S.&.L ",
",.>.6.$.A./.>.;.h.Y 9.M.p.;.&.,.M.H I.q.D D oX} { D c $.7.u.oX^.>.j.{ h L 6.5.K H D.OXR.*XB.G e.6.oXA.>.F |.M.=.O.:.y.C.*.p.S.&.;.&.} F 3 ;.",
"C ;.d.;.;.N.5.A A.M.} h.6 r ,.7.7.D .X&.5.D 5 S.].7.>.;.V.I.A.w ,.7.9.f M.^.&.F.&.H.z._ @XA.D.} ;.].;.d.5.;.l ,.:.Z.x.XXx.k.:.:.o &.&.>.;.;.",
"&.>.,.C.h n 3 ;.-.XXr C./.` >.h./.} &.V.^.^.p.} /.h.B.=.&.} &..X XV.H 8.^.M./.>.7.d.^ 7.X./.S ' >.7.C.H h.).;.M.M.7.M Z A ! 7.A.S.} A.;.;.G ",
"5.d.6.9 H S.A D |..X5.,.0X5.@.{ K.M.&.M.u {./.(. .h.8.G ,./.F /.V.W K.^.i y.].3.x ^.e.*.H M.*.3.+XG B.l ;.7.N.>.^.C.$.C A.A.u.>.@X>.>.S.3 r ",
"/.# 9.F *.H * $.{.;.;.9 A.C.k } &.E M.>.,.d.4.%X/.{.) ..&.! i./.y.M.M.A ;.;.].d.5.C.@.I &.A.] 5.;.B.@.e : H M.M.6.7.g.;.7.` G h.B.G 9 H &.G ",
"5.e ,.>.|.*.{ '.W.>.t -.F.} P.,.*.e.F ;.|./.h.:.N.C.w ;.A.*.z.-X>.;.C.H B.'.9.J y.L _ A.d.C.1.z.H &.r M.} } &.M.v f.$.h.8 w B.h.7.>.M.S.H Z.",
"' C.N.S.&.J.A.F C.-.&.|.I.l.d.A.P.d.C.7.5.6.g.@.=.D <.$.7.*XM.k.-.:.H F ^.C.&.,.A |.>.r M.@X@XM.P.9 F S.@.5.>.P.e.,.H >.6 G C.c -.-.F.&.,.M.",
">.;.>.B.>.B.>.;.>.=.&.Z.N.B.} &.,.B.7.7.} $.$.;.l.d.x >.Y 7.} ,.W M.>.} >.d.l.Z.,.Z.=.$.5.oX;.B..X-.V.,.F OXG l.p.,.9 d.d.>.G 4.:.H A.;.+.@.",
"A.=.p.E d.C.9. .S.H |.M.l.S.7.S.M.M.9 7.D  . .5.,.l ^.,X@.&.>.>.l.M.M.>.{ { Z ,.:.M.D h.6.`.>./.&.Z.F N.M.,.M.M.H /.>.6.$.g.} 4.p.l h.d.>.A.",
"G =.,.p.C.7.;.!.>.@XA.!.V.B.M.A @X/.l @XA 6 >.d.&.@ >.>.,.@Xy.>.N._.;.C ~.;.:.X.L >.C A.>.C./.6.;.C.M.l.N.M.M.z.7.J.;.A.7.>.>.;.7.] $.1.>./.",
";.@.M.:.H =.+X,.A S B.5.A @.d.J.&.&.:.S.y.F C C.&.H >.r A.|.M.C.&.&.>.A.9./.e.:.9 E D $.M.,.C &.>.,.M.q.e.y.S.F.&.,.,.H ,.S.F *.F  .' { H W ",
">.C.S.XXE Y ,.B.@.-.A.C E ;.4.>.S.N.-.:.E H S.&._..X,.M.>.1Xe.M.I A.;.9 h.C.F.X.z.-.Y Y F A.,..X).O.&.V.:.*.&.,.-.P.:.E S.p.,..XZ d.#.d.M.L "
};
