/* XPM */
static char *result[] = {
/* columns rows colors chars-per-pixel */
"70 70 50 1 ",
"  c #030202",
". c #080707",
"X c #0C0A09",
"o c #110E0E",
"O c #13100F",
"+ c #151211",
"@ c #1A1614",
"# c #1D1817",
"$ c #1F1A18",
"% c #221D1B",
"& c #26201E",
"* c #28221F",
"= c #2B2422",
"- c #2F2825",
"; c #302926",
": c #362E2B",
"> c #382F2C",
", c #39302D",
"< c #3E3531",
"1 c #413633",
"2 c #443936",
"3 c #4A3E3A",
"4 c #4E413D",
"5 c #50433F",
"6 c #524541",
"7 c #574945",
"8 c #594B46",
"9 c #5C4E49",
"0 c #5F504B",
"q c #62534D",
"w c #675651",
"e c #6C5B55",
"r c #6F5E58",
"t c #705F58",
"y c #73615B",
"u c #78655F",
"i c #7A6760",
"p c #7E6B64",
"a c #836E67",
"s c #846F68",
"d c #857069",
"f c #8A756D",
"g c #8E7870",
"h c #927B73",
"j c #978077",
"k c #978078",
"l c #9D847C",
"z c #A0877E",
"x c #A1887F",
"c c #A48A81",
/* pixels */
"                                                                      ",
" o%%&&%&&%&%%O %============@ @&%%%&%%%%%%%$ o%%$%%$%%$%$$$ X&%%%%%%o ",
" <saapaaaapas2Xdzlllklllllklq qaapappaapapsq 9lkkkjkkllkkkfo<aappaaa, ",
" <saaaaaaaaas2Xfxxzxzxxxxxccq qdaaaaaaaasssw qcxcxxxxzzxxcho<daaaaad< ",
" ,ssaaaaaasas2Xfcxxxxxxxxxxcq.qsasaasasasasw qcxxxxxxxxxzcgo<saaaaas, ",
" <saassasaaad2Xfcxxxxxxxxxxcq qsaaasaaaaaasw.qcxzxxxxxxxzzho<asaasss< ",
" <saaaaaaassf2ofcxxxxxxxxxxce.qsasaaaaassase qccxxxxxxxzzcho<saaaaas1 ",
" <ddddddssssd2Xfccccccccccccq qfdddddddddsse qccccccccccccho<fssddsd< ",
" =90998999999;.9teeeeeeeeeee2 20999988008902 1yeeeeeetttttqX=099099q= ",
"     .    .        .    .         .      .      .    . .. .   .       ",
" :uyyy7 1999090999997X=yyyyyyyytyyyr@@8009q90890999%Oeyyyyytyyyyyyyy: ",
" 4cccci 8fddssdddddduO1ccxcccccccccl=&pdsdddddsddss;%lccccccxcxxcccc4 ",
" 4clxcu.8saassaaaaaduO<xxxxxxxxxlxxl*%paaaaasaassas;$hxxxxxxxxxxxxxc3 ",
" 3ccxcy 8ssasaaaaaaduO<xxxxxxxxxxxxl=$paaaaaaaaasaa;%jxxxxxxxxxxxxxc4 ",
" 4clxcu 8dsaassadaaayo<xxxxxxxxxxxxl*%paaaasaaaaaaa;%hxxxxxxxxxxxxlc4 ",
" 4ccxcu 8daaaaaaaaaauo1xxxxxxxxzxxxl*$pdasaasaasaaa;%kxxxxxxxxxxxxcc3 ",
" 3lllly 7ppppppppppayo<llllllllllklk=%ppppppppppppp=$hllllllllllllll3 ",
" o=**=$ +$%%$&&%%$$%$ X===&*========. $$%%$%%%%$%%%X &==*======*=*==o ",
" X&%%%%&&&%&&O &=-=---======@ @%%%%%&&=%=%%# #==--=-;==-=-% X%%%%%%%X ",
" ,aaaaaaappaa<Xdllllllllxllxe 0aaapspppppppw.qcklzllzllllzgo<aappaaa< ",
" ,ssaaaaaaaad2Xgccclclccxxxce.qdaaaasspssssw.wcczzxxxxxxccgO<ssssaas, ",
" 1saaaaadaaad2Xfclcclcclxxxce qdaaassssssssw wcczcxxxxxxccgo<sasaaas< ",
" ,ssaaaaaaaad2Xgclcllclcxxxce qdaaaaspsssssw wcczzzxxxxxlcgo<saaaass1 ",
" 1saasaaaaaad2Xfccclcclcxxxce qdsasasspspsdw.wcczcxxxxxxccgo<sassaad, ",
" <ddddddddddd2Xgcccccccccccce qdddddddddsssw.wccccccccccccgo<fssfssf1 ",
" =98998989080-Xqrrrrrrrryryy4 20999999999993.2trtrrrrytrtrwX=9999999= ",
"   . .          .....  ......  .        .. .  .....  ....... ...      ",
" >yyyu7 <000990007007X-uyyryyyyyyyut$$yytyyttittity=o9q09q999999q9q9= ",
" 4ccccu 8fddddddpdddiO2cxccccccccccc=-ccccccccccccc<@issdsssssssdddf< ",
" 3cxccu.7dadaaaadapduo<cclclxxxxlccl==llcckcckccccc,@issspssssssaaas, ",
" 4ccccu 7ddpdaadpaaauo2cllccxxxxclck==clclcccckckcc<@issssaaaasasasd1 ",
" 3cllcu 8dadpddpdaddyo2ccclcxxxxccck=-kccckckcccccc<@ipspsasaasaaaad, ",
" 4ccxcu.8daaaaaaaaaauo2ccclccclclcll==lcxxxxxxxxxxc<@uddaaaaaaaasaad< ",
" 4lllly 7apaapaappppyo2llllllllllklk==kllllllllllll<Ouppapppappapppa, ",
" O===-$ @%%%%%%%&&&&$ o=============.X==*==--======O &&&&&&%%%%%%%%%o ",
" X*&*&*=*==*=+ @$$$$$%$#$$$$O @*=%&&*&&&&&*@ o%$%$#%$$#$$$@ O======-+ ",
" 2lllllllllll4Xepppppppppppp4 yllllllllkllly 4appppppppppae.4lllllll3 ",
" 3ccxxlxxxxlc6Xrsaaaaaaapddd6.uclxlxlcclxxxu.4ssapadaaaaasyX4cxxxxxc3 ",
" 2clxxxxxxxxc4Xtsaaaaaadaadd6 ucxxxxxxxxxxcu 4dadaaaaaaaaaeX4cxxxxzc4 ",
" 4ccxxxxxxxxc6.tsaaaadapddpd6 ucxxxxxxxxxxcu 5daaaaaaaaaasyX5cxxxxxc3 ",
" 2ccxxxxxxxxc6.rsaasaaaaaasd6 ucxxxxxxxxxxcu.4aasaaasaaaaseX5cxxcccc3 ",
" 4ccccccccccc6Xydddddddddddd7 iccccccxcccccu.4ddddsssddssdyX5ccccccc4 ",
" -ereeeeyttry> 6089880809999, 7uryyryeeeery4 :88888889998q4.>uyyyyyy: ",
"     .           . .    .       . ..                         .. . ..  ",
" :yyyu6 <988988999897.-rrrrttetrrryr#O7888888888888$Oeyytytyyytttyty; ",
" 4ccccp 8dddsdddsddduO2cccccccccxxcl*&addsddddddsss-$lcccccccccccccc4 ",
" 3cxxcu 7dsaasaaaaaauo1xxxxxxxxxxxxl*$paaaasaaaaaaa=$hxxxxzxxxczxxxc4 ",
" 4cxxcu.7daaaasaaaaauO2xxxxxxxxxxxxl*$paaaaaaaaaaaa-$jxxxxzczxxxxxxc3 ",
" 4clzcu 9daaaaasasasuo1czxxxxxxxxxxl&%paasaaaaaasas=$hccclclcclcxxxc4 ",
" 3ccxcu 7daaaaaaaaasuo2cxxxxxcxxxxxl*%paaaaasaaaaaa-$hcclccclcclxcxc3 ",
" 4lllcu 7appapppppppyo<lllllkllklllj&%uaapppppppapp=#hllllclllkclllz4 ",
" +=-==$ +%%%$%%%$%$%@ X*&&&&=====***. %%%%%%%%$$$$$. =-=-===========O ",
" X=*=&*==**==O @%%%$%%%%%%%%o $=***====*&**% O%%%$%%%%%%$%@ +=&=*=*=o ",
" 3lllllllllll4Xeappppppppppa4 yllllllllllllu.4appppppppppae.3clkllll3 ",
" 3ccxxxxzxxxc6.tsaaaaaasaaad6 icxxzzxxxxxxxp.4dasaasasaaasrX6cclxxlc4 ",
" 3xlxxxxxxzzc5Xtdaasaaaaaaad6 ucxxxzxxxxxxcu.5daasaaaaaaasr.4clcxxcc3 ",
" 4xxxxxxxxxxc5Xtsaasaasaaaad7 ucxxxxxxxxxxci.6dasaasaasaast.4cxxxxxc4 ",
" 4cxxxxxxxxxc5Xtssaaaaasaaas5 ucxxxxxxxxxxci.4daaaaasaasast.4cxxxxxc3 ",
" 3cxccxxccccc7.tdddddddddddf6 uccxcxcxcccccp.6dsddsdsssdsdyX5cccxccc4 ",
" ;yyyyyyytyty>.509909999999q, 7uyyyyyyyyryu8 ,0009999099994.>ytyyyyu: ",
"     .  . . .                         .               .       .   .   ",
" :yyyu5.,999899999007X=eeeeeeeeeeeee@+7777977787777$Oeyyytyyyyyytyyy; ",
" 4ccxcu 9fssssdsdddsuO1cccccccccccxz&%asddddddsdsss-$jcccccccccccccc4 ",
" 4cxxxu.7ssassssaaaauo<xxxccxxxxxxzl*%psaaaaaasaaaa-$jxxxxxxzxxxxzcc3 ",
" 3cxxcu 8daaaasaasadyo<clcxxxxxxxxxl*%pasaasasasaaa-$jxxcclcclclcclc4 ",
" 4cxxcu 8saaaaaaaaasuo<cczxxxxxxxxxl&$paaaaaaaaasaa=$hxxlcclcclcclcc4 ",
" 4cxccu 8daasaaaaaadio<clczzxzxxxxcl=$paaaaasaaaasa-$jcxlclclccccccc3 ",
" 3llllu 7apaappapappyX<llllllllllllh&$pppppappppppp=$hxlclllllllklkc3 ",
" O-=-=% +&%%%%%%&&%%% X==*=&=*==*==&X $%%%$%%%$%%%%. ==-=--=-=-=-=-=+ ",
"                                                                      "
};
